SplineFontDB: 3.0
FontName: Nitro-Regular
FullName: Nitro
FamilyName: Nitro
Weight: Regular
Copyright: Copyright (c) 2018, Jed
UComments: "2018-4-2: Created with FontForge (http://fontforge.org)"
Version: 0.1
ItalicAngle: 0
UnderlinePosition: 0
UnderlineWidth: 0
Ascent: 1000
Descent: 0
InvalidEm: 0
LayerCount: 2
Layer: 0 0 "Back" 1
Layer: 1 0 "Fore" 0
XUID: [1021 830 346582169 8099210]
StyleMap: 0x0000
FSType: 0
OS2Version: 0
OS2_WeightWidthSlopeOnly: 0
OS2_UseTypoMetrics: 1
CreationTime: 1522671287
ModificationTime: 1527079115
PfmFamily: 17
TTFWeight: 400
TTFWidth: 5
LineGap: 0
VLineGap: 0
OS2TypoAscent: 0
OS2TypoAOffset: 1
OS2TypoDescent: 0
OS2TypoDOffset: 1
OS2TypoLinegap: 0
OS2WinAscent: 0
OS2WinAOffset: 1
OS2WinDescent: 0
OS2WinDOffset: 1
HheadAscent: 0
HheadAOffset: 1
HheadDescent: 0
HheadDOffset: 1
OS2Vendor: 'PfEd'
MarkAttachClasses: 1
DEI: 91125
LangName: 1033
Encoding: ISO8859-1
UnicodeInterp: none
NameList: AGL For New Fonts
DisplaySize: -48
AntiAlias: 1
FitToEm: 0
WinInfo: 48 16 9
BeginPrivate: 0
EndPrivate
TeXData: 1 0 0 0 0 0 239104 1048576 0 783286 444596 497025 792723 393216 433062 380633 303038 157286 324010 404750 52429 2506097 1059062 262144
BeginChars: 256 47

StartChar: n
Encoding: 110 110 0
Width: 0
VWidth: 0
Flags: W
HStem: 1 21G<37.8864 75 189 227> 1 21G<37.8864 75 189 227> 1 21G<37.8864 75 189 227> 176 1<74 173> 178 36<1 38 75 161.811> 214 1<57 122.01>
VStem: 0 1<176 214> 36 1<1 89> 37 1<1 89> 75 1<1 15.4709> 190 37<104 150.665> 227 1<1 112.878>
LayerCount: 2
Fore
SplineSet
0 215 m 2x16d0
 0 176 l 2
 0 175 l 2
 36 176 l 1x1750
 37 0 l 2
 75 0 l 2
 76 0 l 2
 76 0 71 167 74 176 c 1
 173 187 187 125 189 108 c 0
 189 105 189 104 189 104 c 1
 188 0 l 2
 189 0 l 2
 227 0 l 2
 228 0 l 2
 228 104 l 2
 228 168 171 215 114 215 c 2
 0 215 l 2x16d0
1 214 m 1x9ae0
 114 214 l 2
 171 214 227 168 227 104 c 2x9ae0
 227 1 l 1x9a50
 189 1 l 1
 190 104 l 2
 190 104 189 106 189 108 c 0
 187 125 174 189 74 177 c 0
 71 177 75 10 75 1 c 1
 38 1 l 1
 37 177 l 2
 1 176 l 1
 1 214 l 1x9ae0
38 89 m 1
 38 178 l 1
 20 177 l 1
 1 177 l 1
 1 195 l 1
 1 214 l 1x9ae0
 57 214 l 2
 115 214 124 214 135 212 c 0
 153 208 172 200 186 188 c 0
 193 182 203 170 208 162 c 0
 216 151 221 140 224 126 c 2
 226 119 l 1
 226 60 l 1
 227 1 l 1x96d0
 208 1 l 1
 190 1 l 1
 190 54 l 2
 190 86 189 109 189 111 c 0
 187 128 179 146 167 156 c 0
 155 167 141 173 122 177 c 0
 115 179 112 178 96 178 c 0
 86 178 76 178 75 178 c 2
 72 177 l 1
 73 116 l 2
 73 82 74 42 74 28 c 2
 74 1 l 1
 56 1 l 1
 38 1 l 1
 38 89 l 1
EndSplineSet
Validated: 37
EndChar

StartChar: o
Encoding: 111 111 1
Width: 0
VWidth: 0
Flags: W
HStem: -19.6201 20G<0.186523 0.270508> -19.6201 20G<0.186523 0.270508> -19.6201 20G<0.186523 0.270508> -19.6201 20G<0.186523 0.270508> 0.0761719 21G<0.186523 0.270508> 0.0761719 21G<0.186523 0.270508> 0.0761719 21G<0.186523 0.270508> 0.0761719 21G<0.186523 0.270508>
LayerCount: 2
Fore
SplineSet
0.076171875 0.228515625 m 4x08
 0.076171875 0.3125 0.14453125 0.3798828125 0.228515625 0.3798828125 c 4x80
 0.3125 0.3798828125 0.3798828125 0.3125 0.3798828125 0.228515625 c 4
 0.3798828125 0.14453125 0.3125 0.076171875 0.228515625 0.076171875 c 4
 0.14453125 0.076171875 0.076171875 0.14453125 0.076171875 0.228515625 c 4x08
0 0.228515625 m 4
 0 0.1025390625 0.1025390625 0 0.228515625 0 c 4
 0.3544921875 0 0.4560546875 0.1025390625 0.4560546875 0.228515625 c 4
 0.4560546875 0.3544921875 0.3544921875 0.4560546875 0.228515625 0.4560546875 c 4
 0.1025390625 0.4560546875 0 0.3544921875 0 0.228515625 c 4
EndSplineSet
Validated: 524289
EndChar

StartChar: i
Encoding: 105 105 2
Width: 47
VWidth: 0
Flags: W
HStem: 217 35<0 39>
VStem: 0 39<217 252>
LayerCount: 2
Fore
SplineSet
0 176 m 2
 0 0 l 2
 39 0 l 2
 39 176 l 2
 0 176 l 2
1 175 m 1
 1 1 l 1
 38 1 l 1
 38 175 l 1
 1 175 l 1
38 218 m 1
 1 218 l 1
 1 251 l 1
 38 251 l 1
 38 218 l 1
39 218 m 2
 39 217 l 2
 0 217 l 2
 0 218 l 2
 0 252 l 2
 39 252 l 2
 39 218 l 2
EndSplineSet
Validated: 9
EndChar

StartChar: t
Encoding: 116 116 3
Width: 0
VWidth: 0
Flags: W
HStem: 0 1<38 75> 175 40<1 40 76 113> 175 1<1 38 76 113> 260 1<39 40>
VStem: 0 1<176 214> 38 1<1 175 215 260> 75 1<1 175> 76 1<215 260> 113 1<176 214>
LayerCount: 2
Fore
SplineSet
39 261 m 2xdd80
 38 260 l 2
 38 215 l 1
 0 215 l 2xdd80
 0 176 l 2
 0 175 l 2xbd80
 38 175 l 1
 37 0 l 2
 38 0 l 2
 76 0 l 2xdd80
 76 175 l 1
 113 175 l 2xde80
 114 176 l 2xbe80
 114 215 l 2
 113 215 l 2
 77 215 l 1
 77 260 l 2
 77 261 l 2
 39 261 l 2xdd80
39 260 m 1
 76 260 l 1
 76 215 l 2xdd80
 77 214 l 2
 113 214 l 1
 113 176 l 1
 76 176 l 2xbd80
 75 176 l 2
 75 1 l 1
 38 1 l 1
 39 176 l 2
 1 176 l 1xbe80
 1 214 l 1
 39 214 l 2
 39 215 l 2
 39 260 l 1
39 89 m 1
 40 177 l 1
 21 177 l 1
 1 177 l 1
 1 195 l 1
 1 214 l 1
 21 214 l 1
 40 214 l 1
 40 237 l 1
 40 259 l 1
 58 259 l 1
 76 259 l 1
 76 237 l 1
 76 214 l 1x9d80
 94 214 l 1
 113 214 l 1
 113 195 l 1
 113 177 l 1
 94 177 l 1
 75 177 l 1
 75 89 l 1
 75 1 l 1x9e80
 57 1 l 1
 38 1 l 1
 39 89 l 1
EndSplineSet
Validated: 5
EndChar

StartChar: r
Encoding: 114 114 4
Width: 0
VWidth: 0
Flags: W
HStem: 0 1<39 76> 102 21G<154 190> 174 1<1 38> 212 1<42 81.8164>
VStem: 0 1<175 213> 38 1<1 174> 76 1<1 87.2866> 152 1<103 107.732> 190 1<102 106.849>
LayerCount: 2
Fore
SplineSet
0 213 m 2
 0 175 l 2
 0 174 l 2
 38 174 l 1
 38 0 l 2
 39 0 l 2
 77 0 l 2
 77 0 75 165 77 174 c 1
 152 173 152 102 152 102 c 0
 152 102 190 99 191 102 c 0
 189 208 77 213 77 213 c 1
 0 213 l 2
1 212 m 1
 77 212 l 2
 77 212 188 207 190 102 c 0
 187 101 157 103 153 103 c 1
 153 109 150 173 77 174 c 0
 73 175 76 10 76 1 c 1
 39 1 l 1
 39 175 l 2
 1 175 l 1
 1 212 l 1
39 89 m 1
 39 176 l 1
 21 176 l 1
 1 176 l 1
 1 194 l 1
 1 213 l 1
 42 212 l 2
 80 212 84 212 93 210 c 0
 120 204 142 192 158 178 c 0
 177 160 187 139 189 110 c 2
 190 103 l 1
 187 102 l 2
 185 102 176 102 168 102 c 2
 154 103 l 1
 153 107 l 2
 148 147 123 172 85 174 c 2
 76 175 l 1
 75 172 l 2
 75 171 75 131 75 85 c 2
 75 1 l 1
 58 1 l 1
 40 1 l 1
 39 89 l 1
EndSplineSet
Validated: 37
EndChar

StartChar: a
Encoding: 97 97 6
Width: 244
VWidth: 0
Flags: W
HStem: 0 21G<189 227> 0 21G<189 227> 1 1<98.7132 121.629> 11 20G<187 188.355> 31 163G<165 243> 37 1<102.739 120.994> 176 37<226 243> 191 1<102.111 120.017> 192 33<64.6719 161.378> 213 1<164.547 165> 227 1<108.514 124.028>
VStem: 0 1<106.632 127.295> 38 1<105.671 123.897> 188 1<0 31 104.343 122.116> 189 37<33 34 60.4047 167.102> 243 1<176 213>
LayerCount: 2
Fore
SplineSet
243 214 m 1x207b
 243 176 l 1
 227 175 l 2
 226 175 l 2x023b
 227 0 l 1
 189 0 l 1x823d
 190 32 l 2
 190 33 l 0
 189 33 l 2
 189 33 168 0 105 2 c 0
 37 4 -1 63 1 120 c 0
 3 172 37 222 112 227 c 0
 153 227 165 213 165 213 c 0
 243 214 l 1x207b
112 227 m 2
 112 227 l 2
244 215 m 2
 165 214 l 2
 164 215 150 228 112 228 c 0
 37 223 2 172 0 120 c 0
 -2 63 37 3 105 1 c 0x207d
 162 -1 185 25 189 31 c 1
 188 0 l 2x483d
 189 0 l 2
 227 0 l 2
 227 174 l 1
 244 175 l 2
 244 214 l 2x807d
 244 215 l 2
111 192 m 0x053d
 62 192 38 153 38 115 c 0
 38 75 64 36 114 37 c 0
 166 38 190 76 189 115 c 0
 188 153 161 192 111 192 c 0x053d
111 191 m 0
 160 191 187 153 188 115 c 0
 189 77 165 39 114 38 c 0
 64 37 39 75 39 115 c 0
 39 153 62 191 111 191 c 0
190 4 m 2
 190 8 191 34 191 34 c 0
 191 34 187 31 184 27 c 0
 173 17 158 9 139 5 c 0
 125 2 98 2 85 5 c 0
 59 11 37 26 22 48 c 0
 1 78 -3 119 8 153 c 0
 21 192 51 217 95 225 c 0x80bd
 118 229 149 224 162 215 c 2
 165 212 l 1
 204 213 l 1x007d
 243 213 l 1
 243 195 l 1
 243 177 l 1
 239 176 l 2
 237 176 233 176 230 176 c 2
 226 176 l 1
 226 88 l 1
 226 0 l 1x823b
 208 0 l 1
 189 0 l 1x823d
 190 4 l 2
135 39 m 0
 162 46 182 67 188 95 c 0
 189 99 189 107 189 114 c 0
 189 137 181 158 165 173 c 0
 149 188 131 193 107 192 c 0
 79 191 57 176 45 151 c 0
 40 139 38 130 38 115 c 0
 38 104 39 100 41 93 c 0
 49 62 70 42 101 37 c 0x053d
 109 36 125 37 135 39 c 0
EndSplineSet
EndChar

StartChar: g
Encoding: 103 103 7
Width: 250
VWidth: 0
Flags: W
HStem: -238 38<69.406 168.594> -48 38<69.406 168.594> 1 40<69.724 170.276> 193 38<70.406 169.594>
VStem: 5 38<-173.594 -74.406 69.1827 164.643> 196 38<-171.643 -114.315>
LayerCount: 2
Fore
SplineSet
44 117 m 0
 44 159 78 193 120 193 c 0
 162 193 196 159 196 117 c 0
 196 75 162 41 120 41 c 0
 78 41 44 75 44 117 c 0
6 117 m 0
 6 54 57 1 120 1 c 0
 183 1 234 54 234 117 c 0
 234 179 183 231 120 231 c 0
 57 231 6 180 6 117 c 0
196 -100 m 1
 234 -126 l 1
 234 222 l 1
 196 222 l 1
 196 -100 l 1
43 -124 m 0
 43 -82 77 -48 119 -48 c 0
 161 -48 195 -82 195 -124 c 0
 195 -166 161 -200 119 -200 c 0
 77 -200 43 -166 43 -124 c 0
5 -124 m 0
 5 -187 56 -238 119 -238 c 0
 182 -238 233 -187 233 -124 c 0
 233 -61 182 -10 119 -10 c 0
 56 -10 5 -61 5 -124 c 0
EndSplineSet
Validated: 5
EndChar

StartChar: e
Encoding: 101 101 8
Width: 244
VWidth: 0
Flags: W
HStem: 0 21G<81 112> 0 21G<81 112> 0 21G<81 112> 0 21G<81 112> 117 39<11 38 48 214> 150 20G<0 48 166.5 210> 190 38<69 110 110.64 163.798>
VStem: 11 27<117 156> 190 24<117 156>
LayerCount: 2
Fore
SplineSet
0 113 m 0x8380
 0 175 48 226 110 228 c 1
 110 190 l 1
 69 188 38 155 38 113 c 0
 38 72 71 39 112 38 c 1
 112 0 l 1
 50 1 0 51 0 113 c 0x8380
114 228 m 0
 176 228 227 179 228 117 c 1
 190 117 l 1
 189 158 156 190 114 190 c 0
 73 190 39 158 38 117 c 1
 0 117 l 1x0b80
 1 179 52 228 114 228 c 0
11 156 m 1
 214 156 l 1
 214 117 l 1
 11 117 l 1
 11 156 l 1
56 16 m 0
 3 48 -15 116 15 170 c 1x0780
 48 151 l 1
 28 115 40 70 75 49 c 0
 110 28 155 38 178 72 c 1
 210 53 l 1
 177 1 109 -17 56 16 c 0
EndSplineSet
Validated: 37
EndChar

StartChar: l
Encoding: 108 108 9
Width: 55
VWidth: 0
Flags: W
HStem: 1 21G<1 38> 1 21G<1 38> 1 21G<1 38> 326 1<1 2>
VStem: 0 1<1 326> 38 1<1 326>
LayerCount: 2
Back
Fore
SplineSet
0 327 m 2x1c
 0 326 l 2
 0 0 l 2
 39 0 l 2
 39 326 l 2
 39 327 l 2
 0 327 l 2x1c
1 326 m 1
 38 326 l 1
 38 1 l 1
 1 1 l 1x9c
 1 326 l 1
2 164 m 1
 2 326 l 1
 20 326 l 1
 38 326 l 1
 38 164 l 1
 38 2 l 1
 20 2 l 1
 2 2 l 1
 2 164 l 1
EndSplineSet
Validated: 5
EndChar

StartChar: m
Encoding: 109 109 10
Width: 0
VWidth: 0
Flags: HW
HStem: 0 1<41 78 195 232> 0 1<195 232 349 386> 176 1<0 40 79 194 233 280> 214 1<0 1 284 284>
VStem: -1 1<177 214> 40 1<1 176> 78 1<1 176> 194 1<1 2> 232 1<1 176> 348 1<1 169> 386 1<1 117>
LayerCount: 2
Fore
SplineSet
0 214 m 6x7fe0
 -1 214 l 6
 -1 177 l 6
 0 177 l 6
 40 176 l 5
 40 0 l 6
 41 0 l 6
 79 0 l 6xbfe0
 79 0 l 6
 79 176 l 5
 194 176 l 5
 194 0 l 6
 194 0 l 6
 232 0 l 6
 233 0 l 6
 233 176 l 5
 238 176 280 177 284 175 c 4
 284 175 l 4
 284 175 348 169 348 108 c 4
 348 47 348 1 348 1 c 4
 349 0 l 6
 387 0 l 6
 387 1 l 6
 387 107 l 6
 387 214 285 214 285 214 c 5
 0 214 l 6x7fe0
0 213 m 5
 285 213 l 6
 285 213 386 213 386 107 c 6
 386 1 l 5
 349 1 l 5x7fe0
 349 6 349 50 349 108 c 4
 349 169 287 176 285 176 c 4
 280 179 232 177 232 177 c 4
 232 176 l 6
 232 1 l 5
 195 1 l 5
 195 176 l 6
 194 177 l 6
 79 177 l 6
 78 176 l 6
 78 1 l 5
 41 1 l 5
 41 176 l 6
 41 177 l 6
 0 177 l 5
 0 213 l 5
42 89 m 5
 42 177 l 5
 34 177 l 6
 30 177 21 178 14 178 c 6
 1 178 l 5
 1 196 l 5
 1 213 l 5
 146 213 l 6
 288 213 293 213 302 211 c 4
 342 203 369 181 380 145 c 4
 385 130 385 124 385 61 c 6
 385 2 l 5
 368 2 l 5
 350 2 l 5
 350 40 l 6
 350 61 349 88 349 101 c 4
 349 123 348 124 346 131 c 4
 339 150 324 164 303 171 c 4
 289 176 281 177 255 177 c 6
 231 177 l 5
 231 89 l 5
 231 2 l 5
 213 2 l 5
 195 2 l 5
 195 89 l 5
 195 177 l 5
 136 177 l 5
 78 177 l 5
 78 89 l 5
 78 2 l 5
 60 2 l 5
 42 2 l 5
 42 89 l 5
EndSplineSet
Validated: 37
EndChar

StartChar: h
Encoding: 104 104 11
Width: 244
VWidth: 0
Flags: HW
HStem: 0 1<38 76 190 227> 174 1<1 38 76 114> 176 1<89 120> 213 1<1 2> 214 1<1 2 90 117> 326 1<38 40 75 76>
VStem: 0 1<175 213> 37 1<215 325> 38 1<1 89 269 326> 76 1<1 174 215 326> 189 1<1 103> 227 1<1 109>
LayerCount: 2
Fore
SplineSet
114 176 m 2xf6f0
 184 176 189 103 189 103 c 1
 189 0 l 2
 189 0 l 2
 228 0 l 2
 228 0 l 2
 228 103 l 2
 228 103 228 208 114 214 c 0
 104 215 80 215 77 215 c 2
 77 326 l 2
 76 327 l 2
 38 327 l 2
 38 327 l 0
 38 326 l 2xeef0
 38 289 37 252 37 215 c 1xef70
 0 214 l 2
 0 213 l 2
 0 175 l 2
 0 174 l 2
 38 175 l 1
 38 0 l 2
 38 0 l 2
 76 0 l 2
 77 0 l 2
 76 174 l 1
 114 176 l 2xf6f0
39 326 m 1
 76 326 l 1
 76 214 l 2
 77 214 l 2
 77 214 103 214 114 214 c 0
 227 207 227 103 227 103 c 1
 227 1 l 1
 190 1 l 1
 190 103 l 2
 190 103 l 2
 190 103 185 177 114 177 c 2
 76 175 l 2
 76 175 l 2
 76 1 l 1
 39 1 l 1xf6f0
 39 175 l 2
 39 176 l 2
 1 175 l 1
 1 213 l 1
 37 214 l 2
 38 214 l 2xf770
 39 326 l 1
39 89 m 1
 39 176 l 1
 21 176 l 1
 1 175 l 1
 1 194 l 1
 1 213 l 1
 18 213 l 2
 26 213 35 213 36 213 c 2
 39 214 l 1
 39 260 l 2
 39 285 39 310 39 315 c 2
 40 326 l 1
 57 326 l 1
 75 326 l 1
 75 303 l 2
 75 290 76 265 76 247 c 2
 76 214 l 1xee70
 90 214 l 2
 123 214 144 210 164 201 c 0
 190 189 210 166 220 137 c 0
 226 119 227 118 227 57 c 2
 227 2 l 1
 209 2 l 1
 190 2 l 1
 190 56 l 2
 190 110 190 111 188 118 c 0
 179 151 159 171 130 176 c 0
 123 177 119 177 101 177 c 0
 89 177 78 176 77 176 c 2
 75 175 l 1
 75 88 l 1
 75 2 l 1
 57 2 l 1
 39 2 l 1
 39 89 l 1
EndSplineSet
Validated: 5
EndChar

StartChar: f
Encoding: 102 102 12
Width: 138
VWidth: 0
Flags: HW
HStem: 0 1<38 75> 174 1<1 36 76 113> 213 1<1 27 112 113>
VStem: 0 1<175 213> 37 1<1 104> 75 1<1 174 214 216> 75 1<1 174 214 222> 112 1<175 213>
LayerCount: 2
Fore
SplineSet
1 213 m 6xfb
 4 213 37 213 37 216 c 4
 37 293 113 319 121 321 c 5
 121 316 121 285 121 282 c 4
 75 262 75 213 75 213 c 4
 76 213 l 6
 113 213 l 5
 113 175 l 5
 75 175 l 6
 75 174 l 6xfd
 75 1 l 5
 38 1 l 5
 38 175 l 6
 37 175 l 6
 1 175 l 5
 1 213 l 6xfb
0 213 m 6
 0 175 l 6
 0 174 l 6
 37 174 l 5
 38 0 l 6
 38 0 l 6
 76 0 l 6
 76 0 l 6xfb
 76 174 l 5
 113 174 l 6
 114 175 l 6
 114 213 l 6
 113 214 l 6
 76 214 l 5
 76 220 78 263 121 281 c 4
 122 283 122 321 122 321 c 6
 121 322 l 4
 121 322 37 298 37 216 c 4
 34 214 0 214 0 214 c 4
 0 213 l 6
39 17 m 5
 39 26 38 65 38 104 c 6
 38 175 l 5
 20 175 l 5
 1 175 l 5
 1 194 l 5
 1 213 l 5
 19 213 l 6
 30 213 36 214 37 214 c 4
 38 215 39 219 39 225 c 4
 41 256 58 283 87 303 c 4
 96 309 107 315 116 318 c 6
 121 320 l 5
 121 301 l 5
 121 283 l 5
 115 280 l 6
 95 270 81 251 76 227 c 4
 76 223 75 218 75 216 c 6
 75 212 l 5
 94 212 l 5
 112 213 l 5
 112 194 l 5
 112 175 l 5
 93 175 l 5
 74 175 l 5
 75 88 l 5
 75 2 l 5
 57 2 l 5
 40 2 l 5
 39 17 l 5
EndSplineSet
Validated: 5
EndChar

StartChar: s
Encoding: 115 115 13
Width: 0
VWidth: 0
Flags: W
HStem: 1 38<2 114> 1 21G<110 161> 1 21G<110 161> 1 1<2 161> 173 1<55 111> 211 1<110 111>
VStem: 0 1<174 211> 1 1<2 39> 111 1<174 211> 160 1<1 37>
LayerCount: 2
Fore
SplineSet
111 211 m 1x8ec0
 111 174 l 1
 54 174 l 2
 53 174 l 2
 160 37 l 1
 161 1 l 1x4ec0
 2 2 l 1x1dc0
 2 39 l 1x8dc0
 112 39 l 2
 113 39 l 0
 1 174 l 1
 1 211 l 1
 111 211 l 1x8ec0
111 212 m 2
 0 212 l 2
 0 211 l 2
 0 174 l 2x1ec0
 111 40 l 1
 1 40 l 2
 1 39 l 2x8dc0
 1 1 l 2x1dc0
 162 0 l 2
 161 38 l 2
 55 173 l 1
 111 173 l 2
 112 174 l 2
 112 211 l 2
 111 212 l 2
42 2 m 2
 2 2 l 1x1dc0
 2 20 l 1
 2 38 l 1
 58 38 l 1
 114 39 l 1x8dc0
 58 106 l 1
 1 174 l 1
 1 192 l 1
 1 210 l 1
 56 210 l 1
 110 210 l 1
 110 193 l 1
 110 175 l 1
 81 175 l 1
 52 174 l 1
 103 110 l 2
 130 75 155 43 156 41 c 2
 159 37 l 1
 160 19 l 1
 161 1 l 1
 121 1 l 2x4ec0
 99 1 64 2 42 2 c 2
EndSplineSet
Validated: 5
EndChar

StartChar: z
Encoding: 122 122 14
Width: 0
VWidth: 0
Flags: W
HStem: 1 21G<1.55556 160> 1 21G<1.55556 160> 1 1<1 160> 2 37<48 160> 173 1<51 81> 190 20G<106 161> 211 1<51 52>
VStem: 1 1<1 37> 50 1<174 211> 160 1<2 39> 161 1<174 211>
LayerCount: 2
Fore
SplineSet
50 212 m 2x1fa0
 50 211 l 2
 50 174 l 2
 50 173 l 2
 107 173 l 1
 1 38 l 2
 0 0 l 2
 160 1 l 2x8fc0
 161 1 l 2x2fa0
 161 39 l 2x1fc0
 161 40 l 2
 51 41 l 1
 162 174 l 2
 162 211 l 2
 161 212 l 2
 50 212 l 2x1fa0
51 211 m 1
 161 211 l 1
 161 174 l 1x2fa0
 49 41 l 2
 49 40 l 0
 50 40 l 2
 160 39 l 1x1fc0
 160 2 l 1
 1 1 l 1x2fc0
 2 37 l 1
 108 174 l 2
 51 174 l 1
 51 211 l 1
2 20 m 1
 2 37 l 1
 56 105 l 1
 109 174 l 1
 81 174 l 1
 52 174 l 1
 52 192 l 1
 52 210 l 1
 106 210 l 1
 161 210 l 1
 161 192 l 1
 161 174 l 1x2fa0
 104 107 l 1
 48 40 l 1
 72 39 l 2
 85 39 109 39 127 39 c 2
 160 39 l 1
 160 21 l 1
 160 3 l 1x1fc0
 157 2 l 2
 155 2 119 2 77 2 c 2
 1 2 l 1
 2 20 l 1
EndSplineSet
Validated: 5
EndChar

StartChar: y
Encoding: 121 121 15
Width: 0
VWidth: 0
Flags: HW
HStem: -233 1<105 124> -231 38<68 169> -195 1<105 125> -122 1<0 1 38 38> 0 1<100 124> 2 36<66 165> 37 1<107 119> 212 1<1 2 37 38>
VStem: 0 1<111 212> 38 1<-124 -122 111 123 174 212> 190 1<-126 30 31 31 111 214> 228 1<-121 214>
LayerCount: 2
Fore
SplineSet
38 211 m 1xbff0
 38 111 l 2
 38 111 l 2
 38 111 45 38 113 37 c 0
 187 36 191 111 191 111 c 1
 191 214 l 1
 228 214 l 1
 228 111 l 1
 228 -121 l 2
 228 -121 221 -232 115 -232 c 0
 13 -232 2 -130 1 -122 c 1
 38 -122 l 1
 38 -128 48 -195 115 -195 c 0
 190 -195 191 -122 191 -122 c 1
 191 31 l 2
 191 31 l 0
 190 31 l 2
 190 31 167 0 115 0 c 0
 10 -2 1 111 1 111 c 2
 1 211 l 1
 38 211 l 1xbff0
39 212 m 2
 0 212 l 2
 0 212 l 2
 0 111 l 2
 0 111 l 2
 0 111 9 -2 115 0 c 0
 161 0 186 25 190 30 c 1
 190 -122 l 2
 190 -122 189 -194 115 -194 c 0
 46 -194 39 -121 39 -121 c 0
 39 -121 l 2
 0 -121 l 2
 0 -122 l 2
 0 -122 8 -233 115 -233 c 0
 221 -233 229 -122 229 -122 c 1
 229 111 l 1
 229 214 l 2
 229 215 l 2
 190 215 l 2
 190 214 l 2
 190 111 l 1
 190 111 187 37 113 38 c 0
 46 38 39 111 39 111 c 0
 36 148 39 175 39 212 c 0
 39 212 l 2
92 -230 m 0
 70 -226 53 -217 38 -202 c 0
 21 -185 8 -162 3 -135 c 0
 0 -121 -1 -122 20 -122 c 2
 38 -123 l 1
 39 -128 l 2
 42 -148 54 -168 67 -179 c 0
 84 -194 108 -199 134 -193 c 0
 162 -187 181 -169 189 -139 c 2
 191 -131 l 1
 191 -49 l 1
 191 33 l 1
 186 28 l 2
 176 18 161 9 146 5 c 0
 134 2 126 1 108 1 c 0
 89 1 81 4 67 10 c 0
 39 22 17 48 7 84 c 0
 2 102 1 103 1 166 c 2
 1 211 l 1
 20 211 l 1
 38 211 l 1
 38 167 l 2
 38 115 38 110 39 103 c 0
 46 68 66 45 95 39 c 0
 102 37 105 38 117 38 c 0
 133 38 138 39 150 45 c 0
 170 54 185 75 190 102 c 0
 191 108 191 118 191 167 c 2
 191 213 l 1
 209 213 l 1
 228 213 l 1
 228 49 l 1
 228 -127 l 1
 226 -136 l 2
 216 -178 194 -209 162 -223 c 0
 147 -229 139 -231 118 -231 c 0xdff0
 105 -231 97 -231 92 -230 c 0
EndSplineSet
Validated: 8388645
EndChar

StartChar: b
Encoding: 98 98 16
Width: 245
VWidth: 0
Flags: HW
HStem: 3 1<0.898173 37.8982> 4 1<102.898 122.898> 39 1<106.898 122.898> 193 1<107.898 123.898> 232 1<104.898 123.898> 329 1<0.898173 1.89817 37.8982 37.8982>
VStem: -0.101827 1<4 329> 37.8982 1<4 30 201 201 202 329> 38.8982 1<4 30 106 120> 227.898 1<107 126>
LayerCount: 2
Fore
SplineSet
0.8984375 329 m 1xbf40
 37.8984375 329 l 1
 37.8984375 201 l 2
 37.8984375 201 l 0
 38.8984375 201 l 2
 38.8984375 201 64.8984375 233 115.8984375 232 c 0
 166.8984375 231 230.8984375 182 227.8984375 114 c 0
 224.8984375 46 166.8984375 5 113.8984375 5 c 0
 60.8984375 5 39.8984375 31 39.8984375 31 c 2
 39.8984375 31 l 0
 38.8984375 31 l 2x7ec0
 37.8984375 4 l 1
 0.8984375 4 l 1
 0.8984375 329 l 1xbf40
-0.1015625 330 m 2
 -0.1015625 3 l 2
 -0.1015625 3 l 2
 38.8984375 3 l 2
 38.8984375 3 l 2xbf40
 39.8984375 30 l 1xbec0
 43.8984375 26 66.8984375 4 113.8984375 4 c 0
 167.8984375 4 225.8984375 45 228.8984375 114 c 0
 231.8984375 183 167.8984375 232 115.8984375 233 c 0
 68.8984375 234 43.8984375 207 38.8984375 202 c 1
 38.8984375 330 l 2x7f40
 38.8984375 330 l 2
 -0.1015625 330 l 2
 -0.1015625 330 l 2
38.8984375 115 m 0x3ec0
 37.8984375 86 62.8984375 39 113.8984375 39 c 0
 159.8984375 39 190.8984375 78 190.8984375 117 c 0
 190.8984375 155 157.8984375 194 115.8984375 194 c 0
 52.8984375 194 39.8984375 144 38.8984375 115 c 0x3ec0
39.8984375 115 m 0
 40.8984375 144 53.8984375 193 115.8984375 193 c 0
 157.8984375 193 189.8984375 155 189.8984375 117 c 0
 189.8984375 78 158.8984375 40 113.8984375 40 c 0
 62.8984375 40 38.8984375 87 39.8984375 115 c 0
1.8984375 167 m 1
 1.8984375 329 l 1
 19.8984375 329 l 1
 37.8984375 329 l 1
 37.8984375 264 l 2
 37.8984375 229 37.8984375 200 37.8984375 200 c 0
 37.8984375 200 39.8984375 203 42.8984375 205 c 0
 69.8984375 231 113.8984375 239 148.8984375 225 c 0
 188.8984375 210 218.8984375 174 225.8984375 137 c 0
 227.8984375 127 227.8984375 108 225.8984375 98 c 0
 217.8984375 51 180.8984375 15 131.8984375 7 c 0
 120.8984375 5 96.8984375 6 85.8984375 8 c 0
 66.8984375 13 52.8984375 20 41.8984375 30 c 2
 38.8984375 33 l 1
 38.8984375 26 l 2
 38.8984375 22 37.8984375 16 37.8984375 12 c 2
 36.8984375 5 l 1
 19.8984375 5 l 1
 1.8984375 5 l 1
 1.8984375 167 l 1
126.8984375 40 m 0
 155.8984375 45 180.8984375 67 188.8984375 97 c 0
 190.8984375 107 190.8984375 125 188.8984375 134 c 0
 180.8984375 163 160.8984375 184 133.8984375 192 c 0
 123.8984375 195 104.8984375 195 92.8984375 192 c 0
 61.8984375 184 43.8984375 161 38.8984375 124 c 0
 36.8984375 105 40.8984375 87 52.8984375 70 c 0
 57.8984375 63 69.8984375 54 76.8984375 49 c 0
 82.8984375 45 93.8984375 41 100.8984375 40 c 0
 107.8984375 39 119.8984375 39 126.8984375 40 c 1
 126.8984375 40 l 0
EndSplineSet
EndChar

StartChar: d
Encoding: 100 100 17
Width: 245
VWidth: 0
Flags: W
HStem: 1 35<65.9916 162.045> 1 1<104.931 126.21> 8 20G<132.077 190.741> 190 1<105.242 121.467> 198 21G<140.323 191> 229 1<105.751 124.495> 326 1<191 228>
VStem: 0 38<62.6071 163.457> 0 1<104.705 123.52> 189 1<1 22 105.121 119.13> 190 1<1 22 199 326> 228 1<1 2>
LayerCount: 2
Fore
SplineSet
228 326 m 1x7e30
 191 326 l 1
 191 198 l 2
 190 198 l 2x7e30
 190 198 164 230 113 229 c 0
 62 228 -2 179 1 111 c 0
 4 43 62 2 115 2 c 0
 168 2 189 28 189 28 c 2x7ed0
 190 28 l 2
 191 1 l 1
 228 1 l 1
 228 326 l 1x7e30
229 326 m 2
 229 0 l 2
 190 0 l 2x9f30
 189 27 l 1
 185 22 162 1 115 1 c 0
 61 1 3 42 0 111 c 0x9f50
 -3 179 62 229 113 230 c 0
 160 231 185 204 190 199 c 1
 190 326 l 2
 190 327 l 2
 229 327 l 2
 229 326 l 2
190 112 m 0x9f50
 190 83 166 36 115 36 c 0
 69 36 38 75 38 114 c 0
 38 153 71 191 113 191 c 0
 176 191 189 141 190 112 c 0x9f50
189 112 m 0
 188 141 175 190 113 190 c 0
 71 190 39 152 39 114 c 0
 39 75 69 37 115 37 c 0
 166 37 190 84 189 112 c 0
228 164 m 1
 228 326 l 1
 209 326 l 1
 191 326 l 1
 191 261 l 2
 191 225 191 197 191 197 c 0
 191 197 189 200 186 202 c 0
 159 227 115 236 80 222 c 0
 40 206 10 173 3 134 c 0
 1 125 1 106 3 95 c 0
 11 49 49 12 97 4 c 0
 108 2 132 2 143 5 c 0
 162 9 177 17 188 27 c 2
 190 30 l 1x5e30
 190 22 l 2x5e50
 190 18 191 13 191 9 c 2
 192 2 l 1
 209 2 l 1
 228 2 l 1x5e30
 228 164 l 1
102 37 m 1
 73 42 48 63 40 94 c 0
 38 104 38 122 40 130 c 0
 48 159 68 181 95 189 c 0
 105 192 124 192 136 189 c 0
 167 181 185 158 190 121 c 0
 192 102 188 84 176 67 c 0
 171 60 159 50 152 46 c 0
 146 42 135 38 128 37 c 0
 121 36 109 36 102 37 c 1
EndSplineSet
Validated: 37
EndChar

StartChar: c
Encoding: 99 99 18
Width: 247
VWidth: 0
Flags: HW
HStem: 0 1<111 130> 2 36<69 170> 188 1<111 127> 224 1<109 128>
VStem: 8 1<104 122> 45 1<102 118>
LayerCount: 2
Fore
SplineSet
187 153 m 1
 185 157 169 189 117 189 c 0
 83 189 45 158 44 112 c 0
 44 66 79 38 120 38 c 0
 175 38 192 86 194 91 c 1
 230 82 l 1
 228 75 196 -1 118 1 c 0
 67 2 9 44 9 113 c 0
 9 148 30 191 68 212 c 0
 82 220 99 224 118 224 c 0
 190 224 216 177 219 172 c 1
 187 153 l 1
187 152 m 2
 220 171 l 2
 220 172 l 0
 220 172 194 225 118 225 c 0
 99 225 83 220 68 212 c 0
 29 191 8 149 8 113 c 0
 8 43 67 1 118 0 c 0
 201 -2 231 82 231 82 c 0
 230 82 l 2
 194 92 l 2
 193 92 l 2
 193 92 177 39 120 39 c 0
 79 39 45 67 45 112 c 0
 46 157 83 188 117 188 c 0
 172 188 186 152 186 152 c 2
 187 152 l 2
100 3 m 0
 77 8 57 20 40 37 c 0
 26 51 17 67 13 86 c 0
 10 98 9 118 11 130 c 0
 16 159 34 187 57 204 c 0
 76 217 96 224 120 224 c 0
 155 224 184 211 205 189 c 0
 213 181 218 172 217 171 c 0
 217 171 210 167 202 163 c 2
 187 154 l 1
 185 158 l 2
 179 167 169 175 157 181 c 0
 140 189 116 192 99 187 c 0
 75 180 54 157 47 132 c 0
 45 122 44 105 46 95 c 0
 51 68 71 48 99 40 c 0
 109 38 131 38 140 40 c 0
 163 46 181 61 191 83 c 0
 193 87 194 90 194 90 c 0
 194 90 203 88 212 86 c 2
 229 81 l 1
 227 76 l 2
 220 60 209 45 196 32 c 0
 182 18 166 9 148 5 c 0
 141 3 138 2 124 2 c 0
 111 2 107 2 100 3 c 0
EndSplineSet
Validated: 37
EndChar

StartChar: j
Encoding: 106 106 19
Width: 129
VWidth: 0
Flags: HW
HStem: 206 1<75 75 111 112> 247 1<74 111> 281 1<74 75 111 111>
VStem: 0 1<-199 -165> 1 1<-199 -165> 74 1<-96 206 248 281> 75 36<-136 52 205 206 206 206 247 248 282 282>
LayerCount: 2
Fore
SplineSet
75 207 m 1
 74 207 l 0
 74 207 l 2
 74 207 74 -19 74 -90 c 0
 73 -154 1 -165 1 -165 c 0
 0 -165 l 2
 0 -200 l 2
 0 -200 l 2
 0 -200 113 -201 113 -90 c 2
 113 207 l 2
 112 207 l 2
 75 207 l 1
 75 207 l 1
75 206 m 1
 112 206 l 1
 112 -90 l 2
 112 -196 8 -199 0 -199 c 1
 1 -165 l 1
 7 -165 74 -152 75 -90 c 0
 75 -21 75 194 75 206 c 1
74 282 m 2
 73 282 l 2
 73 248 l 2
 74 247 l 2
 112 247 l 2
 112 248 l 2
 112 282 l 2
 112 282 l 2
 74 282 l 2
74 281 m 1
 111 281 l 1
 111 248 l 1
 74 248 l 1
 74 281 l 1
75 265 m 1
 75 281 l 1
 93 281 l 1
 111 281 l 1
 111 265 l 1
 111 249 l 1
 93 249 l 1
 75 249 l 1
 75 265 l 1
1 -190 m 0
 1 -186 2 -177 2 -173 c 2
 2 -166 l 1
 10 -164 l 2
 37 -157 60 -140 69 -119 c 0
 70 -117 71 -111 73 -107 c 0
 75 -100 75 -100 75 52 c 2
 76 205 l 1
 93 205 l 1
 111 205 l 1
 111 53 l 2
 111 -44 110 -101 110 -106 c 0
 107 -131 99 -151 83 -167 c 0
 65 -185 37 -196 9 -198 c 2
 1 -198 l 1
 1 -190 l 0
EndSplineSet
Validated: 8388645
EndChar

StartChar: k
Encoding: 107 107 20
Width: 170
VWidth: 0
Flags: HW
HStem: 0 1<0 38 115 153> 326 1<0 1 37 38>
VStem: 0 1<1 326> 38 1<1 125 172 326> 153 1<203 248>
LayerCount: 2
Fore
SplineSet
0 326 m 1
 0 0 l 2
 0 0 l 2
 38 0 l 2
 39 0 l 2
 39 125 l 1
 154 203 l 2
 154 203 l 2
 154 249 l 2
 153 249 l 0
 153 249 l 2
 38 172 l 1
 39 326 l 2
 38 327 l 2
 0 327 l 2
 0 326 l 2
 0 326 l 1
0 326 m 1
 38 326 l 1
 37 171 l 2
 37 171 l 0
 38 170 l 2
 153 248 l 1
 153 203 l 1
 38 125 l 2
 38 125 l 2
 38 1 l 1
 0 1 l 1
 0 326 l 1
62 141 m 1
 86 72 l 1
 114 0 l 2
 114 0 l 2
 153 0 l 2
 154 0 l 0
 154 0 l 2
 84 193 l 2
 83 193 l 2
 48 179 l 2
 48 178 l 2
 62 141 l 1
63 142 m 1
 49 178 l 1
 83 192 l 1
 153 1 l 1
 115 1 l 1
 87 72 l 1
 63 142 l 1
87 72 m 1
 80 91 87 72 87 72 c 1
1 164 m 1
 1 326 l 1
 19 326 l 1
 37 326 l 1
 37 248 l 2
 37 206 38 170 38 170 c 0
 38 170 40 172 42 173 c 0
 44 175 48 175 48 175 c 0
 48 175 50 170 53 163 c 0
 56 157 59 148 60 146 c 2
 62 142 l 1
 49 134 l 1
 37 125 l 1
 37 64 l 1
 37 2 l 1
 19 2 l 1
 1 2 l 1
 1 164 l 1
56 160 m 0
 53 169 50 178 50 178 c 0
 51 178 83 191 83 191 c 0
 84 190 93 164 93 164 c 0
 92 163 64 144 64 144 c 0
 63 144 60 150 56 160 c 0
95 166 m 0
 95 167 92 173 89 180 c 0
 87 187 84 194 84 194 c 0
 84 194 79 191 73 189 c 0
 67 187 62 186 62 186 c 0
 61 186 151 246 152 246 c 0
 152 246 152 237 152 225 c 2
 152 203 l 1
 136 192 l 2
 127 186 114 179 107 173 c 0
 99 167 95 166 95 166 c 0
114 4 m 0
 95 51 85 81 76 107 c 0
 69 125 65 141 65 141 c 0
 65 141 72 147 80 152 c 2
 94 162 l 1
 97 153 l 2
 117 101 151 3 151 2 c 0
 151 2 144 2 133 2 c 0
 114 2 115 2 114 4 c 0
EndSplineSet
Validated: 37
EndChar

StartChar: p
Encoding: 112 112 21
Width: 245
VWidth: 0
Flags: HW
HStem: -230 1<2.89817 38.8982> -229 1<2.89817 38.8982> 3 1<104.898 123.898> 196 1<106.898 122.898> 231 1<102.898 122.898> 232 1<0.898173 0.898173 36.8982 37.8982>
VStem: -0.101827 1<-228 232> 1.89817 1<-228 232> 38.8982 1<-230 33 118 126 204 204 205 232> 189.898 1<112 126> 227.898 1<109 128>
LayerCount: 2
Fore
SplineSet
2.8984375 -228 m 1x77e0
 38.8984375 -229 l 1
 37.8984375 35 l 2
 37.8984375 35 l 0
 38.8984375 35 l 2
 38.8984375 35 64.8984375 2 115.8984375 3 c 0
 166.8984375 4 230.8984375 54 227.8984375 122 c 0
 224.8984375 190 166.8984375 231 113.8984375 231 c 0xbbe0
 60.8984375 231 39.8984375 204 39.8984375 204 c 2
 39.8984375 204 l 0
 38.8984375 205 l 2
 37.8984375 231 l 1
 0.8984375 231 l 1
 2.8984375 -228 l 1x77e0
1.8984375 -229 m 2
 -0.1015625 232 l 2
 -0.1015625 232 l 2
 38.8984375 232 l 2x77e0
 38.8984375 232 l 2
 39.8984375 206 l 1
 43.8984375 211 66.8984375 231 113.8984375 231 c 0
 167.8984375 231 225.8984375 190 228.8984375 122 c 0
 231.8984375 53 167.8984375 3 115.8984375 2 c 0
 68.8984375 2 43.8984375 28 38.8984375 33 c 1
 39.8984375 -229 l 2
 38.8984375 -230 l 2xbbe0
 1.8984375 -229 l 2x73e0
 1.8984375 -229 l 2
38.8984375 121 m 0
 37.8984375 149 62.8984375 196 113.8984375 196 c 0
 159.8984375 196 190.8984375 158 190.8984375 119 c 0
 190.8984375 80 157.8984375 42 115.8984375 42 c 0
 52.8984375 42 39.8984375 91 38.8984375 121 c 0
39.8984375 121 m 0
 40.8984375 92 53.8984375 42 115.8984375 42 c 0
 157.8984375 42 189.8984375 81 189.8984375 119 c 0
 189.8984375 157 158.8984375 196 113.8984375 196 c 0
 62.8984375 196 38.8984375 149 39.8984375 121 c 0
9.8984375 -228 m 2
 3.8984375 -228 l 1
 2.8984375 -189 l 2
 2.8984375 -168 1.8984375 -64 1.8984375 41 c 2
 0.8984375 231 l 1
 19.8984375 231 l 1
 36.8984375 231 l 1
 37.8984375 224 l 2
 37.8984375 220 38.8984375 213 38.8984375 210 c 0
 38.8984375 207 38.8984375 204 38.8984375 204 c 0
 38.8984375 204 40.8984375 205 41.8984375 206 c 0
 47.8984375 212 61.8984375 220 72.8984375 224 c 0
 128.8984375 244 189.8984375 219 215.8984375 167 c 0
 227.8984375 143 230.8984375 110 221.8984375 84 c 0
 207.8984375 44 166.8984375 10 124.8984375 5 c 0
 95.8984375 1 63.8984375 11 42.8984375 31 c 2
 36.8984375 37 l 1
 37.8984375 -96 l 1
 37.8984375 -229 l 1
 26.8984375 -229 l 2
 20.8984375 -229 12.8984375 -228 9.8984375 -228 c 2
130.8984375 43 m 0
 169.8984375 51 196.8984375 92 189.8984375 132 c 0
 186.8984375 149 179.8984375 162 166.8984375 175 c 0
 153.8984375 188 140.8984375 194 122.8984375 196 c 0
 99.8984375 199 78.8984375 192 61.8984375 176 c 0
 43.8984375 158 36.8984375 136 38.8984375 113 c 0
 42.8984375 74 63.8984375 49 96.8984375 43 c 0
 105.8984375 42 122.8984375 41 130.8984375 43 c 0
EndSplineSet
EndChar

StartChar: q
Encoding: 113 113 22
Width: 0
VWidth: 0
Flags: HW
HStem: -230 1<191 226> -229 1<191 226> 3 1<106 124> 42 1<105 121> 196 1<106 122> 231 1<106 126> 232 1<191 191 228 228>
VStem: 0 1<109 128> 38 1<112 126> 190 1<-229 33 92 124 204 204 206 232> 226 1<-228 232> 228 1<-228 232>
LayerCount: 2
Fore
SplineSet
226 -228 m 1x7bf0
 190 -229 l 1
 191 35 l 2
 191 35 l 0
 190 35 l 2
 190 35 164 2 113 3 c 0
 62 4 -2 54 1 122 c 0
 4 190 62 231 115 231 c 0xbdf0
 168 231 189 204 189 204 c 2
 189 204 l 0
 190 205 l 2
 191 231 l 1
 228 231 l 1
 226 -228 l 1x7bf0
227 -229 m 2
 229 232 l 2
 229 232 l 2
 190 232 l 2x7bf0
 190 232 l 2
 189 206 l 1
 185 211 162 231 115 231 c 0
 61 231 3 190 0 122 c 0
 -3 53 62 3 113 2 c 0
 160 2 185 28 190 33 c 1
 189 -229 l 2
 190 -230 l 2xbdf0
 227 -229 l 2x79f0
 227 -229 l 2
190 121 m 0
 190 149 166 196 115 196 c 0
 69 196 38 158 38 119 c 0
 38 80 71 42 113 42 c 0
 176 42 189 91 190 121 c 0
189 121 m 0
 188 92 175 42 113 42 c 0
 71 42 39 81 39 119 c 0
 39 157 69 196 115 196 c 0
 166 196 190 149 189 121 c 0
191 -96 m 1
 191 36 l 1
 186 30 l 2
 170 17 153 9 133 6 c 0
 121 4 102 5 92 7 c 0
 57 17 28 41 12 72 c 0
 5 87 2 97 2 114 c 0
 2 129 3 140 7 153 c 0
 19 192 54 221 96 229 c 0
 106 231 125 231 137 229 c 0
 155 226 174 218 185 208 c 2
 190 203 l 1
 191 212 l 2
 191 216 191 223 191 226 c 2
 191 231 l 1
 210 231 l 1
 228 231 l 1
 228 219 l 2
 228 212 227 109 227 -11 c 2
 226 -228 l 1
 208 -228 l 1
 191 -228 l 1
 191 -96 l 1
133 43 m 0
 155 47 171 60 181 80 c 0
 191 100 193 125 187 144 c 0
 179 169 160 187 136 194 c 0
 128 196 110 197 102 196 c 0
 67 191 43 163 39 128 c 0
 34 93 57 56 90 45 c 0
 95 44 100 42 103 42 c 0
 110 41 125 41 133 43 c 0
EndSplineSet
Validated: 37
EndChar

StartChar: u
Encoding: 117 117 23
Width: 0
VWidth: 0
Flags: W
HStem: 0 1<191 228> 1 1<104.65 123.572> 10 20G<188 190> 10 20G<188 190> 213 1<37 38>
VStem: 0 1<103.215 213> 38 1<105.083 213> 190 1<1 30 58 213> 228 1<1 213>
LayerCount: 2
Fore
SplineSet
1 213 m 1x4f80
 38 213 l 1
 38 113 l 2
 38 69 79 38 114 39 c 0
 149 40 186 58 191 113 c 0
 191 213 l 1
 228 213 l 1
 228 1 l 1
 191 1 l 1x8f80
 191 31 l 2
 191 32 l 0
 190 32 l 2
 190 32 163 2 114 2 c 0
 65 2 1 43 1 113 c 2
 1 213 l 1x4f80
0 214 m 2
 0 113 l 2
 0 42 65 1 114 1 c 0
 159 1 186 26 190 30 c 1x6f80
 190 0 l 2
 229 0 l 2
 229 214 l 2
 190 214 l 2
 190 113 l 1
 185 58 149 41 114 40 c 0
 79 39 39 70 39 113 c 2
 39 214 l 2
 0 214 l 2
191 17 m 2
 191 26 191 33 191 33 c 0
 191 33 189 31 187 30 c 0
 176 19 157 9 137 5 c 0
 128 3 104 3 95 5 c 0
 71 10 50 21 33 39 c 0
 17 55 8 70 3 92 c 0
 2 97 1 105 1 164 c 2
 1 213 l 1
 19 213 l 1
 37 213 l 1
 38 166 l 2
 38 104 38 103 40 96 c 0
 47 69 66 51 93 42 c 0
 99 40 101 40 114 40 c 0
 126 40 129 40 136 42 c 0
 164 49 181 65 188 94 c 0
 191 106 191 112 191 172 c 2
 191 213 l 1
 209 213 l 1
 228 213 l 1
 228 115 l 1
 228 1 l 1
 209 1 l 1
 191 1 l 1x9f80
 191 17 l 2
EndSplineSet
Validated: 37
EndChar

StartChar: v
Encoding: 118 118 24
Width: 0
VWidth: 0
Flags: HW
LayerCount: 2
Fore
SplineSet
229 230 m 6
 229 231 l 4
 229 231 l 6
 186 231 l 6
 185 231 l 6
 156 155 l 5
 147 132 l 5
 112 39 l 5
 76 134 l 5
 67 157 l 5
 39 231 l 6
 39 231 l 6
 0 231 l 6
 0 231 l 4
 0 230 l 6
 93 1 l 6
 94 1 l 6
 132 1 l 6
 132 1 l 6
 229 230 l 6
228 230 m 5
 131 2 l 5
 94 2 l 5
 1 230 l 5
 39 230 l 5
 66 156 l 5
 75 134 l 5
 112 38 l 6
 112 38 l 4
 112 38 l 6
 148 132 l 5
 157 155 l 5
 186 230 l 5
 228 230 l 5
95 4 m 4
 94 5 10 211 5 225 c 4
 3 229 5 228 21 228 c 6
 38 227 l 5
 74 133 l 6
 94 81 111 40 112 40 c 4
 113 40 130 82 150 134 c 6
 186 229 l 5
 206 229 l 5
 226 229 l 5
 222 219 l 6
 220 213 198 163 174 106 c 6
 130 2 l 5
 113 2 l 6
 103 2 96 3 95 4 c 4
EndSplineSet
Validated: 5
EndChar

StartChar: x
Encoding: 120 120 25
Width: 0
VWidth: 0
Flags: W
HStem: -19.8018 20.2607G<0.00341797 0.078125 0.230469 0.304688 0.383789 0.458984> -19.8018 20.2607G<0.00341797 0.078125 0.230469 0.304688 0.383789 0.458984> -19.8018 20.2607G<0.00341797 0.078125 0.230469 0.304688 0.383789 0.458984> -19.8018 20.2607G<0.00341797 0.078125 0.230469 0.304688 0.383789 0.458984> 0.00195312 21G<0.0078125 0.0830078 0.388672 0.463379> 0.00195312 21G<0.0078125 0.0830078 0.388672 0.463379> 0.00195312 21G<0.0078125 0.0830078 0.388672 0.463379> 0.00195312 21G<0.0078125 0.0830078 0.388672 0.463379>
LayerCount: 2
Fore
SplineSet
0.0029296875 0.4609375 m 2x00
 0.0029296875 0.4609375 0.001953125 0.4609375 0.001953125 0.4599609375 c 0
 0.001953125 0.4599609375 -0.021484375 0.3095703125 0.0966796875 0.2294921875 c 1
 -0.0126953125 0.154296875 0.0068359375 0.0009765625 0.0068359375 0.0009765625 c 0
 0.0068359375 0 0.0068359375 0 0.0078125 0 c 2
 0.083984375 0 l 2
 0.083984375 0 0.0849609375 0 0.0849609375 0.0009765625 c 0
 0.0849609375 0.0009765625 0.0615234375 0.1787109375 0.2080078125 0.197265625 c 0
 0.2158203125 0.1982421875 0.2255859375 0.1982421875 0.2353515625 0.1982421875 c 0
 0.3740234375 0.197265625 0.388671875 0.076171875 0.3876953125 0.0244140625 c 0
 0.3876953125 0.009765625 0.38671875 0.0009765625 0.38671875 0.0009765625 c 2
 0.38671875 0.0009765625 0.38671875 0 0.3876953125 0 c 2
 0.4638671875 0 l 2
 0.4638671875 0 0.46484375 0 0.46484375 0.0009765625 c 0
 0.46484375 0.0009765625 0.484375 0.1435546875 0.3740234375 0.2333984375 c 1
 0.48046875 0.3125 0.4599609375 0.4599609375 0.4599609375 0.4599609375 c 0
 0.4599609375 0.4609375 0.4599609375 0.4609375 0.458984375 0.4609375 c 2
 0.3828125 0.4609375 l 2
 0.3828125 0.4609375 0.3818359375 0.4599609375 0.3818359375 0.4599609375 c 0
 0.3818359375 0.4599609375 0.4052734375 0.26171875 0.2314453125 0.2626953125 c 0
 0.0947265625 0.2626953125 0.078125 0.373046875 0.078125 0.4287109375 c 0
 0.078125 0.447265625 0.080078125 0.4599609375 0.080078125 0.4599609375 c 2
 0.080078125 0.4599609375 0.080078125 0.4609375 0.0791015625 0.4609375 c 2
 0.0029296875 0.4609375 l 2x00
0.00390625 0.458984375 m 1x80
 0.078125 0.458984375 l 2
 0.078125 0.455078125 0.076171875 0.4443359375 0.076171875 0.4287109375 c 0
 0.076171875 0.373046875 0.0927734375 0.2607421875 0.2314453125 0.2607421875 c 0
 0.400390625 0.259765625 0.3857421875 0.4443359375 0.3837890625 0.458984375 c 1
 0.4580078125 0.458984375 l 1x80
 0.4599609375 0.4462890625 0.474609375 0.3095703125 0.3720703125 0.234375 c 0
 0.37109375 0.234375 0.37109375 0.2333984375 0.3720703125 0.2333984375 c 0
 0.4775390625 0.1474609375 0.4638671875 0.013671875 0.462890625 0.001953125 c 1
 0.388671875 0.001953125 l 2
 0.388671875 0.0048828125 0.3896484375 0.0126953125 0.3896484375 0.0244140625 c 0
 0.390625 0.076171875 0.3759765625 0.19921875 0.2353515625 0.2001953125 c 0
 0.064453125 0.201171875 0.0810546875 0.017578125 0.0830078125 0.001953125 c 1
 0.0087890625 0.001953125 l 1x08
 0.0068359375 0.0146484375 -0.005859375 0.158203125 0.099609375 0.2294921875 c 0
 0.099609375 0.2294921875 0.099609375 0.23046875 0.099609375 0.23046875 c 0
 -0.0146484375 0.3056640625 0.0029296875 0.447265625 0.00390625 0.458984375 c 1x80
0.009765625 0.0380859375 m 1
 0.0107421875 0.076171875 0.013671875 0.0947265625 0.0234375 0.123046875 c 0
 0.037109375 0.1640625 0.0615234375 0.201171875 0.08984375 0.220703125 c 0
 0.095703125 0.224609375 0.1005859375 0.228515625 0.1005859375 0.2294921875 c 0
 0.1005859375 0.2294921875 0.09375 0.236328125 0.0849609375 0.2421875 c 0
 0.03125 0.28515625 0.001953125 0.3525390625 0.00390625 0.4326171875 c 2
 0.0048828125 0.45703125 l 1
 0.041015625 0.4580078125 l 1
 0.0771484375 0.4580078125 l 1
 0.076171875 0.4375 l 2
 0.072265625 0.35546875 0.1064453125 0.29296875 0.166015625 0.2705078125 c 0
 0.1884765625 0.2626953125 0.201171875 0.2607421875 0.2314453125 0.2607421875 c 0
 0.255859375 0.2607421875 0.2626953125 0.2607421875 0.2763671875 0.2646484375 c 0
 0.3408203125 0.2802734375 0.3779296875 0.33203125 0.384765625 0.416015625 c 0
 0.3857421875 0.4287109375 0.38671875 0.443359375 0.3857421875 0.4482421875 c 2
 0.384765625 0.4580078125 l 1
 0.421875 0.4580078125 l 1
 0.458984375 0.4580078125 l 1
 0.4580078125 0.421875 l 2
 0.45703125 0.3955078125 0.4560546875 0.380859375 0.453125 0.369140625 c 0
 0.4462890625 0.337890625 0.4345703125 0.30859375 0.4189453125 0.2841796875 c 0
 0.4111328125 0.2734375 0.3828125 0.2431640625 0.3740234375 0.2373046875 c 2
 0.3701171875 0.234375 l 1
 0.3876953125 0.216796875 l 2
 0.4248046875 0.1796875 0.4482421875 0.134765625 0.4580078125 0.080078125 c 0
 0.4619140625 0.0576171875 0.46484375 0.0205078125 0.462890625 0.009765625 c 2
 0.4619140625 0.00390625 l 1
 0.42578125 0.00390625 l 1
 0.390625 0.00390625 l 1
 0.3896484375 0.033203125 l 2
 0.3876953125 0.0908203125 0.3740234375 0.1298828125 0.345703125 0.1591796875 c 0
 0.3251953125 0.1796875 0.3017578125 0.1923828125 0.271484375 0.197265625 c 0
 0.248046875 0.2021484375 0.203125 0.2001953125 0.1845703125 0.1953125 c 0
 0.1533203125 0.185546875 0.1259765625 0.166015625 0.109375 0.140625 c 0
 0.08984375 0.109375 0.080078125 0.0654296875 0.0810546875 0.021484375 c 2
 0.08203125 0.00390625 l 1
 0.044921875 0.00390625 l 1
 0.0087890625 0.00390625 l 1
 0.009765625 0.0380859375 l 1
EndSplineSet
Validated: 524325
EndChar

StartChar: w
Encoding: 119 119 26
Width: 0
VWidth: 0
Flags: HW
HStem: -3 1<1 38> -1 1<102 120 303 319> 36 1<107 123> 38 1<299 315> 227 1<1 2 37 38 191 192 227 228 381 381 418 418>
VStem: 0 1<-2 227> 38 2<-2 29 103 227> 189 1<104 227> 190 1<113 227> 228 1<111 227> 380 1<109 227> 418 1<103 227>
LayerCount: 2
Fore
SplineSet
0 228 m 2xff70
 0 228 l 2
 0 -2 l 2
 0 -3 l 2
 39 -3 l 2
 39 -2 l 2
 40 29 l 1
 44 24 69 -2 114 -1 c 0
 176 0 205 43 209 49 c 1
 213 43 242 0 310 -1 c 0
 377 -2 418 60 419 110 c 0
 419 136 419 228 419 228 c 0
 418 228 l 2
 380 228 l 2
 380 228 l 2
 380 110 l 2
 380 110 376 39 305 39 c 0
 233 39 229 110 229 110 c 1
 229 228 l 2
 229 228 l 2
 190 228 l 2
 190 228 l 0xfef0
 190 228 189 158 189 111 c 0
 189 78 159 37 114 37 c 0
 37 37 39 110 39 110 c 2
 39 228 l 2
 39 228 l 2
 0 228 l 2xff70
1 227 m 1
 38 227 l 1
 38 110 l 1
 38 110 36 36 114 36 c 0
 160 36 190 77 190 111 c 0xff70
 190 155 191 221 191 227 c 1
 228 227 l 1
 228 110 l 2
 228 110 l 2
 228 110 233 38 305 38 c 0
 377 38 381 110 381 110 c 1
 381 227 l 1
 418 227 l 1
 418 220 418 135 418 110 c 0
 417 60 376 -1 310 0 c 0
 238 1 209 50 209 50 c 2
 209 50 l 0
 209 50 l 2
 209 50 179 1 114 0 c 0
 64 -1 40 31 40 31 c 2
 39 31 l 0
 39 31 l 2
 38 -2 l 1
 1 -2 l 1
 1 227 l 1
2 113 m 1
 2 227 l 1
 20 227 l 1
 38 227 l 1
 38 163 l 1
 38 99 l 1
 41 90 l 2
 45 74 53 61 63 52 c 0
 69 47 82 41 90 39 c 0
 105 35 124 35 137 39 c 0
 162 47 183 69 189 96 c 0
 190 103 190 106 190 139 c 0
 190 159 191 187 191 201 c 2
 192 227 l 1
 209 227 l 1
 227 227 l 1
 228 166 l 2
 228 105 228 105 230 98 c 0
 239 65 258 46 287 40 c 0
 296 38 314 38 323 40 c 0
 337 43 347 48 357 58 c 0
 367 68 374 79 378 95 c 0
 380 102 381 103 381 165 c 2
 381 227 l 1
 399 227 l 1
 418 227 l 1
 417 163 l 2
 417 102 417 99 416 91 c 0
 408 56 385 26 356 11 c 0
 339 3 327 0 306 1 c 0
 280 2 260 8 239 22 c 0
 230 27 218 38 213 45 c 0
 211 48 209 50 209 50 c 0
 209 50 206 46 203 43 c 0
 187 22 163 9 136 3 c 0
 128 1 104 0 96 1 c 0
 77 3 59 13 45 26 c 2
 39 32 l 1
 38 25 l 2
 38 22 38 13 38 8 c 2
 38 -1 l 1
 20 -1 l 1
 2 -1 l 1
 2 113 l 1
EndSplineSet
Validated: 37
EndChar

StartChar: A
Encoding: 65 65 27
Width: 0
VWidth: 0
Flags: HW
HStem: 0 1<1 38 189 227> 113 1<37 190> 114 37<37 191> 288 1<104 114> 289 36<65 163> 325 1<106 123>
VStem: 0 1<1 230> 2 1<1 232> 37 1<1 113 153 230> 38 1<1 113 153 231> 188 1<1 113 152 231> 190 1<1 113> 227 1<1 232>
LayerCount: 2
Fore
SplineSet
0 0 m 6
 0 0 l 6
 38 0 l 6
 39 0 l 6
 38 112 l 5
 189 112 l 5
 188 0 l 6
 189 0 l 6
 228 0 l 6
 228 0 l 6
 228 230 l 6
 228 230 l 6
 228 230 208 326 114 326 c 4
 20 326 1 230 1 230 c 6
 1 230 l 6
 0 0 l 6
1 1 m 5
 2 230 l 6
 2 231 22 325 114 325 c 4
 206 325 227 231 227 230 c 6
 227 1 l 5
 189 1 l 5
 190 113 l 6
 190 113 l 6
 37 113 l 6
 37 113 l 6
 38 1 l 5
 1 1 l 5
37 152 m 6
 37 152 l 6
 189 151 l 6
 190 151 l 6
 189 230 l 6
 189 230 l 4
 189 230 179 287 111 289 c 4
 60 291 38 230 38 230 c 6
 38 230 l 6
 37 152 l 6
38 153 m 5
 39 230 l 6
 40 232 62 290 111 288 c 4
 176 286 188 230 188 230 c 6
 189 152 l 5
 38 153 l 5
2 58 m 5
 2 89 2 140 2 173 c 6
 3 233 l 5
 6 242 l 6
 13 262 23 279 36 292 c 4
 51 308 65 317 86 322 c 4
 95 325 97 324 114 324 c 4
 131 324 133 325 142 322 c 4
 159 318 172 310 185 300 c 4
 201 286 216 264 224 240 c 6
 227 231 l 5
 227 117 l 5
 227 2 l 5
 208 2 l 5
 190 2 l 5
 190 58 l 5
 191 114 l 5
 114 114 l 5
 36 114 l 5
 37 61 l 6
 37 32 37 6 37 5 c 6
 37 2 l 5
 20 2 l 5
 2 2 l 5
 2 58 l 5
190 191 m 5
 189 232 l 5
 187 239 l 6
 179 262 159 279 134 286 c 4
 126 288 123 289 111 289 c 4
 97 289 91 288 81 283 c 4
 66 275 52 259 41 238 c 6
 37 231 l 5
 37 191 l 5
 37 151 l 5
 95 151 l 6
 127 151 162 150 172 150 c 6
 191 150 l 5
 190 191 l 5
EndSplineSet
Validated: 8388645
EndChar

StartChar: B
Encoding: 66 66 28
Width: 0
VWidth: 0
Flags: W
HStem: 1 21G<1 39> 1 21G<1 39> 4 1<103.323 121.739> 10 181G<40 42.5 90.5789 116.5> 40 1<112.696 125.419> 192 37<126.008 166.175> 229 1<122.93 123.488> 242 21G<39 42> 431 1<1 2 39 46.4976>
VStem: 0 1<1 431> 38 1<41 118.416 242 393> 112 1<310.678 326.783> 149 1<307 328.334> 226 1<105.476 126.644>
LayerCount: 2
Fore
SplineSet
1 431 m 1x81fc
 39 431 l 2
 77 431 149 400 149 317 c 0
 149 235 79 229 113 229 c 0
 146 229 228 214 226 113 c 0
 225 31 151 5 112 5 c 0x23fc
 73 5 40 31 40 31 c 2
 39 31 l 2
 39 1 l 1
 1 1 l 1
 1 431 l 1x81fc
0 431 m 2
 0 0 l 2
 1 0 l 2
 39 0 l 2
 40 0 l 2
 40 30 l 1
 45 26 76 4 112 4 c 0
 151 4 226 30 227 113 c 0
 229 215 146 230 113 230 c 0
 108 230 105 231 105 231 c 0
 106 234 150 251 150 317 c 0
 150 400 77 432 39 432 c 2
 0 432 l 2
 0 431 l 2
38 241 m 2
 39 241 l 2
 39 241 113 251 113 318 c 0
 113 385 39 394 39 394 c 2
 38 393 l 2
 38 241 l 2
39 242 m 1
 39 393 l 1
 46 392 112 381 112 318 c 0
 112 255 45 243 39 242 c 1
38 115 m 0
 40 40 120 40 120 40 c 2
 120 40 190 41 191 117 c 0
 193 187 122 192 111 192 c 0
 110 192 109 192 109 192 c 2x0dfc
 109 192 36 190 38 115 c 0
39 115 m 0
 37 189 109 191 109 191 c 0
 109 191 110 191 111 191 c 0x11fc
 122 191 192 186 190 117 c 0
 189 42 120 41 120 41 c 0
 120 41 41 41 39 115 c 0
2 216 m 1
 2 430 l 1
 24 430 l 2
 48 430 57 429 71 424 c 0
 112 410 140 378 147 337 c 0
 149 323 149 300 146 288 c 0
 140 267 128 249 110 237 c 0
 101 231 102 229 117 229 c 0x03fc
 149 227 175 217 195 198 c 0
 211 182 220 164 224 138 c 0
 226 126 225 101 223 91 c 0
 216 58 196 33 165 18 c 0
 148 10 134 6 116 6 c 0
 108 6 103 5 97 6 c 0
 81 9 62 17 47 27 c 0
 43 29 39 32 39 32 c 0
 39 32 39 25 39 17 c 2
 39 2 l 1
 20 2 l 1
 2 2 l 1
 2 216 l 1
137 42 m 0
 141 43 148 46 153 48 c 0
 161 52 164 55 170 61 c 0
 182 73 188 85 190 105 c 0
 191 115 191 132 189 141 c 0
 181 170 157 187 119 191 c 0x11fc
 109 192 99 192 88 188 c 0
 62 180 46 163 40 139 c 0
 38 129 38 108 40 98 c 0
 47 69 66 51 97 43 c 0
 113 39 124 39 137 42 c 0
48 243 m 0
 79 251 101 269 109 294 c 0
 116 314 114 339 104 356 c 0
 100 363 87 375 78 380 c 0
 67 386 55 392 41 394 c 2
 38 395 l 1
 38 317 l 2
 38 243 38 241 39 241 c 0
 40 241 44 242 48 243 c 0
EndSplineSet
Validated: 37
EndChar

StartChar: C
Encoding: 67 67 29
Width: 0
VWidth: 0
Flags: HW
LayerCount: 2
Fore
SplineSet
39 323 m 2
 42 364 76 395 111 395 c 0
 147 394 185 371 189 321 c 0
 190 320 l 2
 228 320 l 2
 229 321 l 0
 229 321 l 0
 230 383 175 433 114 432 c 0
 53 431 -1 383 0 321 c 2
 0 110 l 2
 0 44 63 0 116 0 c 0
 169 0 229 46 229 113 c 0
 229 113 l 2
 190 113 l 2
 190 112 l 0
 189 68 153 39 118 38 c 0
 83 37 39 67 39 110 c 2
 39 323 l 2
228 321 m 1
 190 321 l 1
 186 371 147 395 111 396 c 0
 76 396 41 364 38 323 c 0
 38 323 l 2
 38 110 l 2
 38 66 82 36 118 37 c 0
 153 38 189 67 191 112 c 1
 228 112 l 1
 228 46 169 1 116 1 c 0
 63 1 1 45 1 110 c 2
 0 321 l 2
 -1 382 53 431 114 432 c 0
 174 433 229 382 228 321 c 1
98 4 m 0
 65 9 30 34 14 64 c 0
 2 87 1 102 1 229 c 0
 2 341 2 343 8 357 c 0
 24 396 58 422 102 429 c 0
 158 438 220 391 225 336 c 2
 226 322 l 1
 209 322 l 2
 191 322 189 323 189 334 c 0
 189 343 177 365 167 375 c 0
 153 388 132 396 111 396 c 0
 90 396 70 387 56 369 c 0
 36 346 37 343 37 209 c 0
 38 94 38 91 43 81 c 0
 61 49 101 30 135 39 c 0
 160 46 184 71 190 97 c 2
 193 110 l 1
 210 110 l 1
 228 110 l 1
 226 101 l 2
 222 75 211 54 191 35 c 0
 164 9 132 -1 98 4 c 0
EndSplineSet
Validated: 37
EndChar

StartChar: D
Encoding: 68 68 30
Width: 0
VWidth: 0
Flags: HW
HStem: 0 1<1 40> 72 1<39 43> 361 71<37 76>
VStem: 0 1<1 432> 38 1<73 360> 112 1<195 232> 113 35<119 311> 149 1<199 234>
LayerCount: 2
Fore
SplineSet
0 431 m 2
 0 431 l 2
 0 0 l 2
 0 0 l 2
 86 0 l 2
 86 0 l 0
 127 7 188 39 190 106 c 2
 190 326 l 2
 190 326 l 0
 183 391 134 424 93 431 c 0
 93 431 l 2
 0 431 l 2
0 431 m 1
 93 431 l 2
 134 424 182 390 189 326 c 2
 189 106 l 2
 187 40 127 7 86 1 c 0
 59 -3 27 1 0 1 c 1
 0 431 l 1
189 326 m 1
 189 326 l 1
 189 326 l 1
 189 326 l 1
38 397 m 0
 38 396 l 2
 38 31 l 2
 38 30 l 0
 89 30 145 37 152 112 c 0
 152 112 l 2
 152 326 l 2
 152 351 137 396 38 397 c 0
39 396 m 1
 137 395 151 351 151 326 c 2
 151 112 l 2
 144 38 89 31 39 31 c 1
 39 396 l 1
151 112 m 1
 151 112 l 1
 151 113 l 1
 151 112 l 1
1 216 m 1
 1 430 l 1
 47 430 l 2
 90 430 94 430 100 429 c 0
 139 419 171 389 183 351 c 0
 189 334 188 343 188 213 c 0
 188 101 188 95 187 89 c 0
 184 76 178 63 171 53 c 0
 167 46 154 34 147 28 c 0
 133 18 114 8 97 4 c 2
 88 1 l 1
 45 1 l 1
 1 1 l 1
 1 216 l 1
66 31 m 1
 95 35 116 42 130 57 c 0
 138 65 143 73 147 85 c 0
 152 100 152 93 152 220 c 2
 152 335 l 1
 150 341 l 2
 142 373 112 391 62 396 c 0
 58 396 49 397 45 397 c 2
 38 397 l 1
 38 213 l 1
 38 30 l 1
 47 30 l 2
 52 30 61 31 66 31 c 1
 66 31 l 1
EndSplineSet
Validated: 8388645
EndChar

StartChar: E
Encoding: 69 69 31
Width: 0
VWidth: 0
Flags: HW
HStem: 1 1<1 184> 3 37<37 184 185 185> 191 1<39 180> 230 1<179 180> 392 1<39 183> 432 1<1 2 182 183>
VStem: 0 1<2 432> 38 1<41 191 231 392> 180 1<192 230> 183 1<394 432> 184 1<2 39>
LayerCount: 2
Fore
SplineSet
1 432 m 1
 183 432 l 1
 183 394 l 1
 38 394 l 2
 38 393 l 2
 38 231 l 2
 39 230 l 2
 180 230 l 1
 180 192 l 1
 38 192 l 2
 38 192 l 2
 38 40 l 2
 39 40 l 2
 184 40 l 1
 184 2 l 1
 1 2 l 1
 1 432 l 1
0 432 m 2
 0 1 l 2
 0 1 l 2
 185 1 l 2
 185 1 l 2
 185 41 l 2
 185 41 l 2
 39 41 l 1
 39 191 l 1
 180 191 l 2
 181 192 l 2
 181 231 l 2
 180 231 l 2
 39 231 l 1
 39 393 l 1
 183 393 l 2
 184 393 l 2
 184 432 l 2
 183 433 l 2
 0 433 l 2
 0 432 l 2
1 217 m 1
 1 431 l 1
 92 431 l 1
 182 431 l 1
 182 413 l 1
 182 395 l 1
 168 394 l 2
 161 394 128 394 96 394 c 2
 38 394 l 1
 38 312 l 1
 38 230 l 1
 108 230 l 1
 179 230 l 1
 179 211 l 1
 179 192 l 1
 108 192 l 1
 38 192 l 1
 38 116 l 1
 38 40 l 1
 111 40 l 1
 184 40 l 1
 184 21 l 1
 184 3 l 1
 93 3 l 1
 1 3 l 1
 1 217 l 1
EndSplineSet
Validated: 8388613
EndChar

StartChar: F
Encoding: 70 70 32
Width: 0
VWidth: 0
Flags: HW
HStem: 0 1<1 38> 191 1<38 112> 229 1<112 112> 392 1<39 183> 431 1<1 2 182 183>
VStem: 0 1<1 431> 37 1<1 191> 38 1<1 191 230 392> 112 1<191 229> 183 1<393 431>
LayerCount: 2
Fore
SplineSet
0 432 m 2xfec0
 0 431 l 2
 0 0 l 2
 0 0 l 2
 39 0 l 2
 39 0 l 2xfdc0
 38 191 l 1
 113 190 l 2
 113 191 l 2
 113 230 l 2
 113 230 l 2
 40 230 l 1
 39 392 l 1
 184 392 l 2
 184 392 l 2
 184 431 l 2
 184 432 l 2
 0 432 l 2xfec0
1 431 m 1
 183 431 l 1
 183 393 l 1
 39 393 l 2
 38 393 l 2
 39 230 l 2
 39 229 l 2
 112 229 l 1
 112 191 l 1
 38 192 l 2
 37 191 l 2xfec0
 38 1 l 1
 1 1 l 1
 1 431 l 1
2 216 m 1
 2 430 l 1
 92 430 l 1
 183 430 l 1
 183 412 l 1
 183 394 l 1
 110 394 l 1
 38 394 l 1
 38 316 l 2
 38 274 38 236 38 234 c 2
 39 229 l 1
 75 229 l 1
 112 229 l 1
 112 210 l 1
 112 192 l 1
 74 192 l 1
 37 192 l 1
 37 97 l 1
 38 2 l 1
 20 2 l 1
 2 2 l 1
 2 216 l 1
EndSplineSet
Validated: 5
EndChar

StartChar: H
Encoding: 72 72 34
Width: 0
VWidth: 0
Flags: HW
HStem: 220 38<54 172> 231 21G<41 43 185 188>
VStem: 187 2<146 148>
LayerCount: 2
Fore
SplineSet
1 432 m 2x60
 0 431 l 2
 0 0 l 2
 1 0 l 2
 39 0 l 2
 40 0 l 2
 40 146 l 2
 40 146 42 220 116 220 c 0
 182 220 188 146 188 146 c 2
 188 0 l 2
 188 0 l 2
 227 0 l 2
 227 0 l 2
 227 431 l 2
 227 432 l 2
 188 432 l 2
 188 431 l 2
 188 231 l 1
 183 235 156 258 114 258 c 0xa0
 72 258 46 236 41 231 c 1
 40 431 l 2
 39 432 l 2
 1 432 l 2x60
1 431 m 1
 1 1 l 1
 39 1 l 1
 39 146 l 1
 39 146 41 221 116 221 c 0
 183 221 188 146 188 146 c 1
 189 1 l 1
 226 1 l 1
 226 431 l 1
 189 431 l 1
 188 230 l 2
 188 229 l 0
 188 229 l 2
 188 229 161 257 114 257 c 0
 67 257 41 229 41 229 c 2
 41 229 l 0
 40 230 l 2
 39 431 l 1
 1 431 l 1
EndSplineSet
Validated: 5
EndChar

StartChar: I
Encoding: 73 73 35
Width: 0
VWidth: 0
Flags: W
HStem: -19.9219 20G<0.155273 0.225586> -19.2158 20.0771G<0.00292969 0.226562> -19.2158 20.0771G<0.00292969 0.226562> -19.2158 20.0771G<0.00292969 0.226562> 0.00195312 21.0771G<0.00195312 0.226562> 0.00195312 21.0771G<0.00195312 0.226562> 0.00195312 21.0771G<0.00195312 0.226562> 0.00195312 21.0771G<0.00195312 0.226562>
LayerCount: 2
Fore
SplineSet
0.001953125 0.86328125 m 6x00
 0.001953125 0.86328125 0.0009765625 0.86328125 0.0009765625 0.8623046875 c 6
 0.0009765625 0.7841796875 l 6
 0.0009765625 0.7841796875 0.001953125 0.783203125 0.001953125 0.783203125 c 6
 0.0771484375 0.7822265625 l 5
 0.0771484375 0.080078125 l 5
 0.0009765625 0.080078125 l 6
 0.0009765625 0.080078125 0 0.0791015625 0 0.0791015625 c 6
 0 0.0009765625 l 6
 0 0.0009765625 0.0009765625 0 0.0009765625 0 c 6
 0.2265625 0 l 6
 0.2265625 0 0.2275390625 0 0.2275390625 0.0009765625 c 6
 0.2275390625 0.0791015625 l 6
 0.2275390625 0.0791015625 0.2265625 0.080078125 0.2265625 0.080078125 c 6
 0.15625 0.0791015625 l 5
 0.1572265625 0.7841796875 l 5
 0.2265625 0.783203125 l 6
 0.2275390625 0.783203125 0.2275390625 0.7841796875 0.2275390625 0.7841796875 c 6
 0.2275390625 0.8623046875 l 6
 0.2275390625 0.86328125 0.2275390625 0.86328125 0.2265625 0.86328125 c 6
 0.001953125 0.86328125 l 6x00
0.0029296875 0.861328125 m 5x40
 0.2265625 0.861328125 l 5x40
 0.2265625 0.78515625 l 5
 0.15625 0.7861328125 l 6
 0.1552734375 0.7861328125 0.1552734375 0.78515625 0.1552734375 0.78515625 c 6
 0.154296875 0.078125 l 6
 0.154296875 0.0771484375 0.154296875 0.0771484375 0.1552734375 0.0771484375 c 6
 0.2255859375 0.078125 l 5x80
 0.2255859375 0.001953125 l 5
 0.001953125 0.001953125 l 5x08
 0.001953125 0.078125 l 5
 0.078125 0.078125 l 6x80
 0.078125 0.078125 0.0791015625 0.0791015625 0.0791015625 0.0791015625 c 6
 0.0791015625 0.783203125 l 6
 0.0791015625 0.7841796875 0.078125 0.7841796875 0.078125 0.7841796875 c 6
 0.0029296875 0.78515625 l 5
 0.0029296875 0.861328125 l 5x40
0.00390625 0.0400390625 m 5
 0.00390625 0.0771484375 l 5
 0.041015625 0.0771484375 l 5
 0.0791015625 0.0771484375 l 5
 0.0791015625 0.431640625 l 5
 0.0791015625 0.78515625 l 5
 0.046875 0.78515625 l 6
 0.029296875 0.78515625 0.0126953125 0.7861328125 0.0087890625 0.7861328125 c 6
 0.00390625 0.7880859375 l 5
 0.00390625 0.82421875 l 5
 0.00390625 0.8603515625 l 5
 0.1142578125 0.8603515625 l 5
 0.2255859375 0.8603515625 l 5
 0.2255859375 0.82421875 l 5
 0.2255859375 0.787109375 l 5
 0.189453125 0.787109375 l 5
 0.154296875 0.787109375 l 5
 0.154296875 0.431640625 l 5
 0.154296875 0.0771484375 l 5
 0.1884765625 0.0771484375 l 5
 0.2236328125 0.0771484375 l 5
 0.2236328125 0.0400390625 l 5
 0.2236328125 0.00390625 l 5
 0.11328125 0.00390625 l 5
 0.00390625 0.00390625 l 5
 0.00390625 0.0400390625 l 5
EndSplineSet
Validated: 524293
EndChar

StartChar: L
Encoding: 76 76 36
Width: 0
VWidth: 0
Flags: HW
LayerCount: 2
Fore
SplineSet
0 432 m 6
 0 431 l 6
 0 0 l 6
 0 0 l 6
 185 0 l 6
 185 0 l 6
 185 40 l 6
 185 40 l 6
 41 40 l 5
 39 431 l 6
 39 432 l 6
 0 432 l 6
1 431 m 5
 38 431 l 5
 40 39 l 6
 40 39 l 6
 184 39 l 5
 184 1 l 5
 1 1 l 5
 1 431 l 5
1 216 m 5
 1 430 l 5
 20 430 l 5
 37 430 l 5
 38 378 l 6
 38 350 38 301 38 269 c 4
 38 237 39 172 39 125 c 6
 40 39 l 5
 112 39 l 5
 184 39 l 5
 184 20 l 5
 184 2 l 5
 93 2 l 5
 1 2 l 5
 1 216 l 5
EndSplineSet
Validated: 5
EndChar

StartChar: T
Encoding: 84 84 37
Width: 0
VWidth: 0
Flags: HW
LayerCount: 2
Fore
SplineSet
1 431 m 1
 183 431 l 1
 183 393 l 1
 112 393 l 2
 112 393 l 2
 112 1 l 1
 75 1 l 1
 74 393 l 2
 74 393 l 2
 1 393 l 1
 1 431 l 1
0 431 m 2
 0 392 l 2
 0 392 l 2
 73 392 l 1
 74 0 l 2
 75 0 l 2
 112 0 l 2
 113 0 l 2
 113 392 l 1
 184 392 l 2
 184 392 l 2
 184 431 l 2
 184 432 l 2
 0 432 l 2
 0 431 l 2
75 197 m 1
 75 393 l 1
 38 394 l 1
 2 394 l 1
 2 412 l 1
 2 430 l 1
 92 430 l 1
 183 430 l 1
 183 412 l 1
 183 394 l 1
 147 394 l 1
 111 393 l 1
 112 197 l 1
 112 2 l 1
 94 2 l 1
 75 2 l 1
 75 197 l 1
EndSplineSet
Validated: 5
EndChar

StartChar: J
Encoding: 74 74 38
Width: 0
VWidth: 0
Flags: W
HStem: -200 1<113.699 132.432> -198 37<70.1492 172.427> -161 1<111.709 130.629> 424 1<9 197> 463 1<235 236>
VStem: 8 1<-90.7686 -89 425 463> 197 1<-88 423> 198 1<-91.0938 423> 236 1<-91.7264 463>
LayerCount: 2
Fore
SplineSet
8 464 m 2xbe80
 8 425 l 2
 8 424 l 2
 197 423 l 1
 198 -88 l 2
 198 -88 192 -160 121 -160 c 0
 51 -160 47 -88 47 -88 c 0
 8 -88 l 2
 8 -88 19 -200 123 -200 c 0
 227 -200 237 -88 237 -88 c 2
 237 464 l 2
 8 464 l 2xbe80
9 463 m 1
 236 463 l 1
 236 -88 l 1
 236 -88 226 -199 123 -199 c 0
 23 -199 10 -97 9 -89 c 1
 46 -89 l 1
 46 -95 53 -161 121 -161 c 0
 193 -161 199 -88 199 -88 c 2xdd80
 198 423 l 2
 9 425 l 1
 9 463 l 1
109 -198 m 0
 66 -192 33 -166 17 -121 c 0
 15 -114 11 -99 10 -93 c 2
 9 -89 l 1
 28 -89 l 2
 46 -89 46 -89 46 -91 c 0
 50 -115 56 -129 68 -141 c 0
 82 -155 98 -161 121 -161 c 0
 137 -161 146 -159 158 -153 c 0
 176 -144 189 -127 196 -104 c 2
 199 -96 l 1
 199 164 l 1
 199 423 l 1xdd80
 184 424 l 2
 176 424 155 425 141 425 c 0
 126 425 89 425 61 425 c 2
 9 426 l 1
 9 444 l 1
 9 463 l 1
 122 463 l 1
 235 463 l 1
 236 188 l 2
 236 -61 236 -88 235 -95 c 0
 230 -125 216 -152 197 -170 c 0xde80
 183 -185 165 -194 145 -197 c 0
 135 -199 118 -199 109 -198 c 0
EndSplineSet
Validated: 37
EndChar

StartChar: M
Encoding: 77 77 39
Width: 1000
VWidth: 0
Flags: HW
LayerCount: 2
Fore
SplineSet
2 429 m 1
 114 429 l 2
 156 429 194 403 209 378 c 0
 209 378 l 0
 210 378 l 2
 210 378 234 429 308 429 c 0
 373 429 418 367 418 318 c 2
 416 1 l 1
 381 1 l 1
 381 319 l 2
 381 353 351 392 307 392 c 0
 263 392 228 360 228 318 c 0
 228 318 228 14 228 1 c 2
 191 1 l 1
 191 318 l 2
 191 367 146 392 114 392 c 2
 39 392 l 2
 39 391 l 2
 38 -1 l 1
 1 -1 l 1
 2 429 l 1
1 430 m 2
 0 -1 l 2
 0 -2 l 2
 39 -2 l 2
 39 -1 l 2
 40 391 l 1
 114 391 l 2
 146 391 190 367 190 318 c 2
 190 0 l 2
 190 0 l 2
 229 0 l 2
 229 0 l 2
 229 0 229 317 229 318 c 0
 229 359 264 391 307 391 c 0
 350 391 380 353 380 319 c 2
 380 0 l 2
 380 0 l 2
 417 0 l 2
 417 1 l 2
 419 318 l 2
 419 367 374 430 308 430 c 0
 239 430 212 385 209 379 c 1
 193 404 156 430 114 430 c 2
 1 430 l 2
 1 430 l 2
1 155 m 2
 1 241 2 337 3 370 c 2
 5 429 l 1
 57 429 l 2
 86 429 117 427 127 426 c 0
 157 422 187 406 203 385 c 2
 209 375 l 1
 217 386 l 2
 234 410 269 427 306 427 c 0
 355 427 394 397 411 348 c 0
 416 333 417 327 417 202 c 0
 417 130 416 56 415 36 c 2
 413 1 l 1
 397 1 l 1
 382 1 l 1
 382 167 l 1
 382 333 l 1
 375 348 l 2
 361 375 336 392 307 392 c 0
 274 392 247 375 234 349 c 2
 228 336 l 1
 228 169 l 1
 228 1 l 1
 210 1 l 1
 192 1 l 1
 192 169 l 2
 192 333 191 336 186 348 c 0
 179 362 164 378 146 386 c 0
 133 392 130 392 85 393 c 2
 37 394 l 1
 37 196 l 1
 37 -1 l 1
 20 -1 l 1
 1 -1 l 1
 1 155 l 2
EndSplineSet
Validated: 5
EndChar

StartChar: V
Encoding: 86 86 40
Width: 1000
VWidth: 0
Flags: HW
LayerCount: 2
Fore
SplineSet
229 326 m 1
 229 326 l 0
 229 326 l 2
 186 326 l 2
 185 326 l 2
 156 218 l 1
 147 187 l 1
 112 54 l 1
 76 188 l 1
 67 221 l 1
 39 326 l 2
 39 326 l 2
 0 326 l 1
 0 326 l 0
 0 326 l 2
 93 0 l 2
 94 0 l 2
 132 0 l 2
 132 0 l 2
 229 326 l 1
228 325 m 1
 131 1 l 1
 94 1 l 1
 1 325 l 1
 38 325 l 1
 66 220 l 1
 75 188 l 1
 112 52 l 2
 112 52 l 0
 112 52 l 2
 148 186 l 1
 157 218 l 1
 186 325 l 1
 228 325 l 1
94 4 m 0
 92 8 7 309 5 317 c 2
 3 324 l 1
 21 324 l 1
 37 324 l 1
 41 311 l 2
 43 304 59 244 77 178 c 0
 95 112 110 56 111 53 c 0
 112 48 114 52 117 65 c 0
 119 74 136 136 154 202 c 2
 187 323 l 1
 206 324 l 2
 224 324 226 325 225 320 c 0
 224 318 203 244 177 158 c 2
 130 1 l 1
 113 1 l 2
 101 1 95 2 94 4 c 0
EndSplineSet
Validated: 5
EndChar

StartChar: S
Encoding: 83 83 41
Width: 0
VWidth: 0
Flags: HW
LayerCount: 2
Fore
SplineSet
113 240 m 4
 37 248 38 317 38 317 c 4
 38 320 46 391 111 391 c 4
 187 390 189 320 189 319 c 4
 189 319 l 6
 189 319 l 6
 202 319 215 319 228 319 c 4
 228 320 l 4
 228 375 180 432 110 430 c 4
 40 428 0 369 0 314 c 4
 1 258 52 201 113 201 c 4
 173 201 194 162 191 112 c 4
 188 62 146 40 115 40 c 4
 84 40 40 64 40 112 c 4
 40 112 l 6
 2 112 l 6
 1 112 l 4
 9 10 95 1 116 0 c 4
 137 -1 220 13 232 112 c 4
 232 112 l 4
 232 194 185 240 113 240 c 4
190 320 m 6
 190 327 185 391 111 392 c 4
 45 392 37 320 37 317 c 4
 37 317 37 247 113 239 c 4
 113 239 l 4
 185 239 231 194 231 112 c 4
 218 14 137 0 116 1 c 4
 95 2 10 10 2 111 c 5
 40 111 l 5
 40 62 83 39 115 39 c 4
 146 39 188 61 192 112 c 4
 195 162 174 202 113 202 c 4
 54 202 1 259 1 314 c 4
 1 369 41 427 110 429 c 4
 179 431 227 374 227 320 c 5
 190 320 l 6
231 112 m 5
 231 112 l 6
 231 42 231 112 231 112 c 5
 231 112 l 5
107 3 m 4
 67 8 34 30 19 59 c 4
 12 73 4 95 4 104 c 4
 4 110 5 110 21 110 c 4
 37 110 38 111 39 104 c 4
 43 85 47 75 57 64 c 4
 96 21 168 34 188 87 c 4
 193 99 193 106 192 127 c 4
 191 148 190 155 184 166 c 4
 177 180 165 191 152 196 c 4
 147 198 131 201 115 203 c 4
 79 207 59 217 37 238 c 4
 11 265 -1 299 4 333 c 4
 14 395 71 437 131 427 c 4
 163 422 192 402 209 375 c 4
 216 363 226 338 226 328 c 4
 226 321 225 322 208 322 c 4
 192 322 190 321 190 326 c 4
 190 337 181 355 171 367 c 4
 157 382 141 390 120 392 c 4
 82 395 56 380 42 342 c 4
 28 306 46 263 82 247 c 4
 91 243 103 239 119 238 c 4
 160 234 187 220 205 195 c 4
 218 177 225 160 228 134 c 4
 230 117 230 111 227 97 c 4
 220 65 203 40 179 23 c 4
 158 8 128 0 107 3 c 4
EndSplineSet
Validated: 37
EndChar

StartChar: U
Encoding: 85 85 42
Width: 1000
VWidth: 0
Flags: HW
LayerCount: 2
Fore
SplineSet
0 431 m 2
 0 431 l 2
 0 113 l 2
 0 37 74 1 114 1 c 0
 154 1 179 16 191 35 c 2
 190 0 l 2
 190 0 l 2
 229 0 l 2
 229 0 l 2
 229 431 l 2
 229 431 l 2
 190 431 l 2
 190 431 l 2
 190 113 l 2
 190 68 149 39 115 39 c 0
 81 39 40 69 39 113 c 2
 39 431 l 2
 39 431 l 2
 0 431 l 2
1 431 m 1
 38 431 l 1
 38 113 l 2
 40 68 81 38 115 38 c 0
 149 38 191 67 191 113 c 2
 191 431 l 1
 228 431 l 1
 228 1 l 1
 191 1 l 1
 192 37 l 2
 191 37 l 0
 191 37 l 0
 181 17 154 2 114 2 c 0
 74 2 1 37 1 113 c 2
 1 431 l 1
192 21 m 1
 192 40 l 1
 184 30 l 2
 173 17 149 6 127 4 c 0
 71 -1 15 39 4 92 c 0
 2 101 1 159 1 267 c 2
 1 429 l 1
 19 429 l 1
 37 429 l 1
 38 261 l 1
 39 94 l 1
 44 83 l 2
 53 66 67 53 83 45 c 0
 120 27 164 43 185 81 c 2
 191 94 l 1
 192 261 l 1
 192 429 l 1
 210 429 l 1
 228 429 l 1
 228 215 l 1
 228 1 l 1
 210 1 l 1
 192 1 l 1
 192 21 l 1
EndSplineSet
Validated: 37
EndChar

StartChar: W
Encoding: 87 87 43
Width: 1000
VWidth: 0
Flags: HW
LayerCount: 2
Fore
SplineSet
380 112 m 2
 376 57 338 40 303 40 c 0
 268 40 229 70 229 112 c 2
 229 430 l 2
 229 430 l 2
 190 430 l 2
 190 430 l 2
 190 112 l 2
 190 73 152 39 117 39 c 0
 82 39 39 64 39 112 c 2
 39 430 l 2
 39 430 l 2
 0 430 l 2
 0 430 l 0
 0 430 l 2
 0 112 l 2
 0 52 49 0 114 0 c 0
 176 0 206 46 209 51 c 1
 213 46 250 0 304 0 c 0
 355 0 375 23 379 29 c 2
 380 0 l 2
 380 0 l 2
 418 0 l 2
 419 0 l 2
 419 430 l 2
 418 430 l 2
 380 430 l 2
 380 430 l 2
 380 112 l 2
1 429 m 1
 38 429 l 1
 38 112 l 2
 38 63 82 38 117 38 c 0
 153 39 191 73 191 112 c 2
 191 429 l 1
 228 429 l 1
 228 112 l 2
 228 69 267 39 303 39 c 0
 338 39 377 56 381 112 c 2
 381 429 l 1
 418 429 l 1
 418 1 l 1
 381 1 l 1
 380 30 l 2
 380 30 l 0
 379 30 l 2
 379 30 362 1 304 1 c 0
 247 1 210 52 210 52 c 2
 210 52 l 0
 209 52 l 2
 209 52 179 1 114 1 c 0
 50 1 1 53 1 112 c 2
 1 429 l 1
97 4 m 0
 52 10 12 48 4 92 c 0
 3 100 1 169 1 268 c 2
 1 429 l 1
 20 429 l 1
 37 429 l 1
 37 264 l 2
 37 79 36 84 55 63 c 0
 76 40 110 31 139 42 c 0
 158 49 175 64 184 82 c 2
 191 97 l 1
 192 263 l 1
 192 429 l 1
 210 429 l 1
 228 429 l 1
 228 261 l 1
 228 94 l 1
 235 81 l 2
 248 55 274 38 303 38 c 0
 336 38 358 50 372 75 c 2
 379 89 l 1
 380 259 l 1
 381 429 l 1
 398 429 l 1
 417 429 l 1
 417 215 l 1
 417 1 l 1
 398 1 l 1
 381 1 l 1
 381 17 l 1
 381 32 l 1
 372 24 l 2
 359 13 344 7 323 4 c 0
 287 -1 256 10 226 38 c 0
 216 47 208 54 208 53 c 0
 208 48 185 27 173 19 c 0
 152 6 124 0 97 4 c 0
EndSplineSet
Validated: 37
EndChar

StartChar: O
Encoding: 79 79 44
Width: 2
VWidth: 0
Flags: W
HStem: -19.1416 20G<0.175781 0.281738> -19.1416 20G<0.175781 0.281738> -19.1416 20G<0.175781 0.281738> 0.00195312 21G<0.175781 0.281738> 0.00195312 21G<0.175781 0.281738> 0.00195312 21G<0.175781 0.281738> 0.00195312 21G<0.175781 0.281738>
LayerCount: 2
Fore
SplineSet
0.4580078125 0.6376953125 m 2x00
 0.453125 0.771484375 0.3349609375 0.8603515625 0.228515625 0.8603515625 c 0
 0.1220703125 0.8603515625 0 0.7783203125 0 0.63671875 c 2
 -0 0.2236328125 l 2
 -0 0.0830078125 0.1220703125 -0 0.228515625 -0 c 0
 0.3349609375 -0 0.4580078125 0.0849609375 0.4580078125 0.2236328125 c 2
 0.4580078125 0.6376953125 l 2x00
0.4560546875 0.6376953125 m 2
 0.4560546875 0.2236328125 l 2
 0.4560546875 0.0859375 0.3349609375 0.001953125 0.228515625 0.001953125 c 0x10
 0.123046875 0.001953125 0.001953125 0.083984375 0.001953125 0.2236328125 c 2
 0.001953125 0.63671875 l 2
 0.001953125 0.77734375 0.123046875 0.8583984375 0.228515625 0.8583984375 c 0x80
 0.3349609375 0.8583984375 0.451171875 0.7705078125 0.4560546875 0.6376953125 c 2
0.078125 0.63671875 m 2
 0.078125 0.732421875 0.1611328125 0.783203125 0.2314453125 0.783203125 c 0
 0.3017578125 0.7822265625 0.3798828125 0.7236328125 0.3798828125 0.63671875 c 2
 0.3798828125 0.2236328125 l 2
 0.3798828125 0.1259765625 0.291015625 0.0751953125 0.220703125 0.0771484375 c 0
 0.150390625 0.0791015625 0.078125 0.1474609375 0.078125 0.2236328125 c 2
 0.078125 0.63671875 l 2
0.076171875 0.63671875 m 2
 0.076171875 0.2236328125 l 2
 0.076171875 0.146484375 0.1494140625 0.0771484375 0.220703125 0.0751953125 c 0
 0.291015625 0.0732421875 0.3818359375 0.1240234375 0.3818359375 0.2236328125 c 2
 0.3818359375 0.63671875 l 2
 0.3818359375 0.724609375 0.3017578125 0.7841796875 0.2314453125 0.7841796875 c 0
 0.16015625 0.78515625 0.076171875 0.7333984375 0.076171875 0.63671875 c 2
0.1953125 0.0078125 m 0
 0.1328125 0.0166015625 0.060546875 0.0654296875 0.0322265625 0.1181640625 c 0
 0.00390625 0.1689453125 0.0029296875 0.1826171875 0.0029296875 0.427734375 c 0
 0.0029296875 0.5732421875 0.0048828125 0.6630859375 0.0087890625 0.6796875 c 0
 0.0263671875 0.7666015625 0.1044921875 0.837890625 0.1982421875 0.853515625 c 0
 0.2783203125 0.8662109375 0.37109375 0.822265625 0.41796875 0.748046875 c 0
 0.453125 0.693359375 0.453125 0.693359375 0.455078125 0.458984375 c 0
 0.4560546875 0.3408203125 0.455078125 0.228515625 0.4521484375 0.2060546875 c 0
 0.4404296875 0.1142578125 0.3857421875 0.0458984375 0.30078125 0.0185546875 c 0
 0.26171875 0.005859375 0.2314453125 0.0029296875 0.1953125 0.0078125 c 0
0.302734375 0.0947265625 m 0
 0.341796875 0.1142578125 0.365234375 0.142578125 0.376953125 0.1826171875 c 0
 0.3837890625 0.2060546875 0.384765625 0.244140625 0.3837890625 0.4404296875 c 0
 0.3828125 0.6650390625 0.3818359375 0.671875 0.37109375 0.6953125 c 0
 0.35546875 0.7294921875 0.3193359375 0.7626953125 0.2841796875 0.7763671875 c 0
 0.2119140625 0.8037109375 0.125 0.7705078125 0.087890625 0.7021484375 c 0
 0.0771484375 0.681640625 0.0771484375 0.6767578125 0.0751953125 0.443359375 c 0
 0.0732421875 0.162109375 0.072265625 0.1708984375 0.1220703125 0.12109375 c 0
 0.16015625 0.0830078125 0.185546875 0.0732421875 0.2333984375 0.0751953125 c 0
 0.2607421875 0.0771484375 0.2763671875 0.0810546875 0.302734375 0.0947265625 c 0
EndSplineSet
Validated: 524325
EndChar

StartChar: P
Encoding: 80 80 45
Width: 1000
VWidth: 0
Flags: HW
LayerCount: 2
Fore
SplineSet
1 431 m 1
 101 431 l 2
 164 431 211 370 211 317 c 0
 211 264 171 203 101 203 c 2
 39 203 l 2
 38 203 l 2
 38 1 l 1
 1 1 l 1
 1 431 l 1
0 431 m 2
 0 0 l 2
 0 0 l 2
 39 0 l 2
 39 0 l 2
 39 203 l 1
 101 203 l 2
 171 203 212 264 212 317 c 0
 212 370 165 431 101 431 c 2
 0 431 l 2
 0 431 l 2
39 393 m 1
 101 393 l 2
 143 393 174 353 174 318 c 0
 174 283 145 241 101 241 c 2
 39 241 l 1
 39 393 l 1
38 393 m 2
 38 241 l 2
 39 241 l 2
 101 241 l 2
 145 241 175 283 175 318 c 0
 175 353 144 394 101 394 c 2
 39 393 l 2
 38 393 l 2
1 215 m 1
 1 429 l 1
 63 428 l 1
 125 427 l 1
 145 418 l 2
 175 403 196 377 206 342 c 0
 217 307 205 265 176 236 c 0
 151 211 131 205 76 205 c 2
 37 205 l 1
 37 103 l 1
 37 1 l 1
 20 1 l 1
 1 1 l 1
 1 215 l 1
129 246 m 0
 155 258 175 287 175 315 c 0
 175 336 169 353 154 369 c 0
 135 390 123 394 76 395 c 2
 37 396 l 1
 37 318 l 1
 37 240 l 1
 77 240 l 2
 112 240 119 242 129 246 c 0
EndSplineSet
Validated: 37
EndChar

StartChar: N
Encoding: 78 78 46
Width: 0
VWidth: 0
Flags: W
HStem: 1 21G<1 38.051> 1 21G<1 38.051> 2 1<191 229> 392 1<40 115> 393 1<40 122.476> 431 1<2 5 115 124.509>
VStem: 1 1<1 431> 38 1<1 392> 39 1<1 392> 190 1<3 324.521> 228 1<3 329.913>
LayerCount: 2
Fore
SplineSet
2 431 m 1x8f60
 115 431 l 2
 165 431 228 392 228 320 c 2
 228 3 l 1
 191 3 l 1
 191 320 l 2
 191 369 147 394 115 394 c 2x2f60
 40 393 l 2x16e0
 39 393 l 2x0ee0
 38 1 l 1
 1 1 l 1
 2 431 l 1x8f60
1 432 m 2
 0 0 l 2
 39 0 l 2
 40 392 l 1
 115 393 l 2x36e0
 146 393 190 369 190 320 c 2
 190 2 l 2
 229 2 l 2
 229 320 l 2
 229 392 165 432 115 432 c 2
 1 432 l 2
1 157 m 2
 1 243 2 339 3 372 c 2
 5 431 l 1
 58 431 l 2
 120 431 140 428 162 418 c 0
 183 408 197 397 208 380 c 0
 227 351 227 360 228 172 c 2
 229 3 l 1
 210 3 l 1
 193 3 l 1
 192 171 l 2
 192 335 191 338 186 350 c 0
 179 365 164 380 147 388 c 0
 133 394 131 394 85 394 c 2
 39 394 l 1x2ee0
 38 198 l 1
 37 1 l 1
 20 1 l 1
 1 1 l 1x8f60
 1 157 l 2
EndSplineSet
Validated: 5
EndChar
